<svg xmlns="http://www.w3.org/2000/svg" xmlns:xlink="http://www.w3.org/1999/xlink" width="660.216" height="368.944" viewBox="0 0 660.216 368.944"><defs><style>.a{fill:url(#a);}.b,.d{fill:#d6d7d8;}.c{fill:#eee;}.d{opacity:0.8;}.e{fill:#749ce8;}.f{fill:#428dfc;}.g{fill:#5c8ce0;}.h{fill:#1d72d8;}.i{fill:url(#b);}.j{fill:#e94a47;}.k{fill:#fff;}.l{fill:#d62929;}.m{fill:#f5f5f5;}.n{fill:#bac1d4;}.o{fill:#ffbeb6;}.p{fill:#f2a19c;}.q{fill:url(#c);}.r{fill:#a1c3fc;}.s{fill:#151a4f;}.t{fill:url(#d);}.u{fill:url(#e);}.v{fill:url(#f);}.w{fill:#8cb6f1;}.x{fill:#78a9ef;}.y{fill:url(#g);}.z{fill:#c3d9fd;}.aa{fill:url(#h);}.ab{fill:url(#i);}.ac{fill:#23286b;}</style><linearGradient id="a" x1="0.5" y1="-3.54" x2="0.5" y2="-1.856" gradientUnits="objectBoundingBox"><stop offset="0" stop-color="#fff"/><stop offset="0.511" stop-color="#efefef"/><stop offset="1" stop-color="#fff"/></linearGradient><linearGradient id="b" x1="11.527" y1="-10.851" x2="17.864" y2="-10.851" gradientUnits="objectBoundingBox"><stop offset="0" stop-color="#749ce8"/><stop offset="1" stop-color="#5c8ce0"/></linearGradient><linearGradient id="c" x1="0.736" y1="0.386" x2="0.855" y2="0.315" gradientUnits="objectBoundingBox"><stop offset="0" stop-color="#ffbeb6"/><stop offset="1" stop-color="#f8afa9"/></linearGradient><linearGradient id="d" x1="0.387" y1="0.365" x2="0.704" y2="0.818" gradientUnits="objectBoundingBox"><stop offset="0" stop-color="#23286b"/><stop offset="1" stop-color="#151a4f"/></linearGradient><linearGradient id="e" x1="0.543" y1="0.189" x2="0.495" y2="0.992" gradientUnits="objectBoundingBox"><stop offset="0" stop-color="#a1c3fc"/><stop offset="1" stop-color="#89b3f4"/></linearGradient><linearGradient id="f" y1="0.5" x2="1" y2="0.5" gradientUnits="objectBoundingBox"><stop offset="0" stop-color="#428dfc"/><stop offset="1" stop-color="#1d72d8"/></linearGradient><linearGradient id="g" x1="0.43" y1="0.519" x2="0.75" y2="0.331" xlink:href="#c"/><linearGradient id="h" x1="0.742" y1="0.873" x2="0.368" y2="0.345" xlink:href="#c"/><linearGradient id="i" x1="214.743" y1="138.765" x2="84.815" y2="54.929" xlink:href="#c"/></defs><g transform="translate(370 -221.287)"><g transform="translate(-370 171.782)"><g transform="translate(0 0)"><rect class="a" width="660.216" height="47.567" transform="translate(0 267.149)"/><g transform="translate(484.301 253.603)"><path class="b" d="M1518.2,880.57v-1.72a4.473,4.473,0,0,0-4.474-4.472h-1.656a4.391,4.391,0,0,0,3.284-4.241V840.492a4.4,4.4,0,0,0-4.4-4.4h-29.655a4.4,4.4,0,0,0-4.4,4.4v29.645a4.392,4.392,0,0,0,3.284,4.241h-16.208a4.391,4.391,0,0,0,3.284-4.241V840.492a4.4,4.4,0,0,0-4.4-4.4h-29.655a4.4,4.4,0,0,0-4.4,4.4v29.645a4.393,4.393,0,0,0,3.284,4.241H1415.86a4.391,4.391,0,0,0,3.284-4.241V840.492a4.4,4.4,0,0,0-4.4-4.4h-29.655a4.4,4.4,0,0,0-4.4,4.4v29.645a4.392,4.392,0,0,0,3.284,4.241h-3.515a4.473,4.473,0,0,0-4.474,4.472v2.236h.257a7.785,7.785,0,0,0-4.5,7.043v23.205h1.71V888.128a6.08,6.08,0,0,1,6.075-6.073h136.857a6.081,6.081,0,0,1,6.075,6.073v23.205h1.71V888.128A7.79,7.79,0,0,0,1518.2,880.57Zm-33.088-39.2h22.021a1.321,1.321,0,1,1,0,2.642h-22.021a1.321,1.321,0,1,1,0-2.642Zm0,8.8h22.021a1.321,1.321,0,1,1,0,2.642h-22.021a1.321,1.321,0,1,1,0-2.642Zm0,8.806h22.021a1.321,1.321,0,1,1,0,2.642h-22.021a1.321,1.321,0,1,1,0-2.642Zm-48.106-17.611h22.021a1.321,1.321,0,1,1,0,2.642h-22.021a1.321,1.321,0,1,1,0-2.642Zm0,8.8h22.021a1.321,1.321,0,1,1,0,2.642h-22.021a1.321,1.321,0,1,1,0-2.642Zm0,8.806h22.021a1.321,1.321,0,1,1,0,2.642h-22.021a1.321,1.321,0,1,1,0-2.642Zm-48.1-17.611h22.021a1.321,1.321,0,1,1,0,2.642H1388.9a1.321,1.321,0,1,1,0-2.642Zm0,8.8h22.021a1.321,1.321,0,1,1,0,2.642H1388.9a1.321,1.321,0,1,1,0-2.642Zm0,8.806h22.021a1.321,1.321,0,1,1,0,2.642H1388.9a1.321,1.321,0,1,1,0-2.642Z" transform="translate(-1371.736 -836.089)"/></g><g transform="translate(26.027 253.603)"><path class="b" d="M220.184,880.57v-1.72a4.473,4.473,0,0,0-4.474-4.472h-1.656a4.391,4.391,0,0,0,3.284-4.241V840.492a4.4,4.4,0,0,0-4.4-4.4H183.278a4.4,4.4,0,0,0-4.4,4.4v29.645a4.392,4.392,0,0,0,3.284,4.241H165.949a4.391,4.391,0,0,0,3.284-4.241V840.492a4.4,4.4,0,0,0-4.4-4.4H135.173a4.4,4.4,0,0,0-4.4,4.4v29.645a4.392,4.392,0,0,0,3.284,4.241H117.844a4.391,4.391,0,0,0,3.284-4.241V840.492a4.4,4.4,0,0,0-4.4-4.4H87.068a4.4,4.4,0,0,0-4.4,4.4v29.645a4.392,4.392,0,0,0,3.284,4.241H82.432a4.473,4.473,0,0,0-4.474,4.472v2.236h.257a7.785,7.785,0,0,0-4.5,7.043v23.205h1.71V888.128a6.08,6.08,0,0,1,6.075-6.073H218.362a6.081,6.081,0,0,1,6.075,6.073v23.205h1.71V888.128A7.79,7.79,0,0,0,220.184,880.57Zm-33.088-39.2h22.022a1.321,1.321,0,1,1,0,2.642H187.1a1.321,1.321,0,1,1,0-2.642Zm0,8.8h22.022a1.321,1.321,0,1,1,0,2.642H187.1a1.321,1.321,0,1,1,0-2.642Zm0,8.806h22.022a1.321,1.321,0,1,1,0,2.642H187.1a1.321,1.321,0,1,1,0-2.642ZM138.99,841.373h22.022a1.321,1.321,0,1,1,0,2.642H138.99a1.321,1.321,0,1,1,0-2.642Zm0,8.8h22.022a1.321,1.321,0,1,1,0,2.642H138.99a1.321,1.321,0,1,1,0-2.642Zm0,8.806h22.022a1.321,1.321,0,1,1,0,2.642H138.99a1.321,1.321,0,1,1,0-2.642Zm-48.1-17.611h22.022a1.321,1.321,0,1,1,0,2.642H90.885a1.321,1.321,0,1,1,0-2.642Zm0,8.8h22.022a1.321,1.321,0,1,1,0,2.642H90.885a1.321,1.321,0,1,1,0-2.642Zm0,8.806h22.022a1.321,1.321,0,1,1,0,2.642H90.885a1.321,1.321,0,1,1,0-2.642Z" transform="translate(-73.72 -836.089)"/></g><path class="c" d="M1741.921,874.075h-.3a7.6,7.6,0,1,0-14.878,0h-.3a6.1,6.1,0,0,0-6.105,6.1V894.42h27.68V880.179A6.1,6.1,0,0,0,1741.921,874.075Zm-12.751-1.559a5.018,5.018,0,1,1,9.784,1.56h-9.532A4.98,4.98,0,0,1,1729.169,872.516Z" transform="translate(-1112.966 -601.135)"/><path class="c" d="M1661.981,1032.813l2.287-6.239a6.551,6.551,0,0,1,2.425.313l-2.473,6.746a.73.73,0,0,0,1.371.5l2.427-6.62a6.732,6.732,0,0,1,1.884,1.786l-2.047,5.585a.73.73,0,0,0,1.371.5l1.608-4.387a11.276,11.276,0,0,1-.064,8.022c-.025.067-.049.132-.075.2a16.878,16.878,0,0,1,1.56,1.011,9.92,9.92,0,0,1,3.872,5.271l-.706.185a9.207,9.207,0,0,0-3.6-4.868,15.887,15.887,0,0,0-1.412-.92,11.245,11.245,0,0,1-4.8,5.342l1.528-4.168a.73.73,0,0,0-1.371-.5l-1.969,5.371a6.371,6.371,0,0,1-2.582.119l2.288-6.242a.73.73,0,0,0-1.371-.5l-2.32,6.327a6.565,6.565,0,0,1-2.014-1.435l2.094-5.712a.73.73,0,0,0-1.371-.5l-1.8,4.91a18.3,18.3,0,0,1-1.543-2.716l1.13-3.083a.73.73,0,0,0-1.371-.5l-.6,1.642c-1.112-2.76-1.9-5.4-2.829-6.278,1.573-.331,3.813-1.836,6.293-3.174l-.779,2.125a.73.73,0,0,0,1.371.5l1.312-3.58a15.766,15.766,0,0,1,2.917-1.03l-2.016,5.5a.73.73,0,0,0,1.371.5Z" transform="translate(-1068.434 -705.712)"/><path class="d" d="M1737,1106.88l-2.287-6.239a6.551,6.551,0,0,0-2.425.313l2.473,6.746a.73.73,0,0,1-1.371.5l-2.427-6.62a6.736,6.736,0,0,0-1.884,1.786l2.048,5.585a.73.73,0,0,1-1.371.5l-1.608-4.387a11.276,11.276,0,0,0,.064,8.022c.024.066.05.132.075.2a16.866,16.866,0,0,0-1.56,1.011,9.921,9.921,0,0,0-3.872,5.272l.706.185a9.208,9.208,0,0,1,3.6-4.868,15.921,15.921,0,0,1,1.412-.92,11.253,11.253,0,0,0,4.8,5.343l-1.528-4.169a.73.73,0,0,1,1.371-.5l1.969,5.371a6.373,6.373,0,0,0,2.582.119l-2.288-6.242a.73.73,0,0,1,1.371-.5l2.319,6.327a6.569,6.569,0,0,0,2.014-1.435l-2.094-5.712a.73.73,0,0,1,1.371-.5l1.8,4.91a18.3,18.3,0,0,0,1.543-2.716l-1.13-3.083a.73.73,0,0,1,1.371-.5l.6,1.642c1.112-2.761,1.9-5.4,2.829-6.278-1.573-.331-3.813-1.836-6.293-3.174l.779,2.125a.73.73,0,0,1-1.371.5l-1.312-3.58a15.773,15.773,0,0,0-2.917-1.031l2.016,5.5a.729.729,0,1,1-1.37.5Z" transform="translate(-1114.59 -753.63)"/></g></g><g transform="translate(44.489 590.231) rotate(180)"><g transform="translate(15.625)"><path class="e" d="M7.487,0a7.5,7.5,0,1,0,7.487,7.5A7.5,7.5,0,0,0,7.487,0Z" transform="translate(1.216 1.218)"/><path class="f" d="M8.7,15A6.282,6.282,0,1,0,2.434,8.721,6.276,6.276,0,0,0,8.7,15m0,2.439a8.721,8.721,0,1,1,8.7-8.721,8.722,8.722,0,0,1-8.7,8.721Z"/></g><ellipse class="f" cx="4.339" cy="4.348" rx="4.339" ry="4.348" transform="translate(19.99 4.372)"/><g transform="translate(2.821 83.987)"><path class="f" d="M28.668,0H0V56.555H28.668ZM4.459,4.469H24.208V52.086H4.459Z"/></g><rect class="g" width="8.678" height="39.242" transform="translate(0 91.93)"/><g transform="translate(44.566 192.889)"><path class="g" d="M51.977,0H0V122.008H51.977V0ZM4.273,4.281H47.705V117.727H4.273Z"/></g><rect class="h" width="5.896" height="24.973" transform="translate(23.641 6.667)"/><g transform="translate(104.982)"><path class="e" d="M7.487,0a7.5,7.5,0,1,0,7.487,7.5A7.5,7.5,0,0,0,7.487,0Z" transform="translate(1.215 1.218)"/><path class="f" d="M8.7,15A6.282,6.282,0,1,0,2.434,8.721,6.276,6.276,0,0,0,8.7,15m0,2.439a8.721,8.721,0,1,1,8.7-8.721,8.722,8.722,0,0,1-8.7,8.721Z"/></g><ellipse class="f" cx="4.339" cy="4.348" rx="4.339" ry="4.348" transform="translate(109.347 4.372)"/><rect class="h" width="5.896" height="24.973" transform="translate(112.997 6.667)"/><rect class="i" width="121.765" height="190.522" transform="translate(9.925 18.312)"/><rect class="e" width="103.24" height="46.377" transform="translate(19.187 150.793)"/><rect class="e" width="103.24" height="7.848" transform="translate(19.187 131.528)"/><rect class="j" width="39.16" height="9.275" transform="translate(50.263 308.476)"/><g transform="translate(22.494 135.81)"><g transform="translate(0 0)"><rect class="k" width="1.78" height="0.714"/></g><g transform="translate(5.222)"><path class="k" d="M86.034,0H82.593V.714h3.441ZM79.15,0H75.709V.714H79.15ZM72.269,0H68.828V.714h3.441ZM65.385,0H61.944V.714h3.441ZM58.5,0H55.061V.714H58.5ZM51.621,0H48.179V.714h3.441ZM44.737,0H41.3V.714h3.441ZM37.854,0H34.413V.714h3.441ZM30.973,0H27.531V.714h3.441ZM24.089,0H20.648V.714h3.441ZM17.206,0H13.765V.714h3.441ZM10.324,0H6.883V.714h3.441ZM3.441,0H0V.714H3.441Z"/></g><g transform="translate(94.698 0)"><rect class="k" width="1.78" height="0.714"/></g></g><g transform="translate(111.505 112.817)"><path class="l" d="M14.212,0a1.251,1.251,0,0,0-.143.008L1.145,1.453a1.291,1.291,0,0,0-1,1.885L6.831,16.058a1.289,1.289,0,0,0,2.32-.08L15.394,1.812a1.294,1.294,0,0,0-.14-1.286A1.3,1.3,0,0,0,14.212,0ZM3.308,3.81l8.819-.986L7.868,12.49Z" transform="translate(0)"/></g><rect class="f" width="3.56" height="14.983" transform="translate(117.192 121.54)"/><rect class="m" width="9.424" height="22.832" transform="translate(89.353 262.101)"/><rect class="n" width="27.686" height="22.832" transform="translate(98.737 262.101)"/><g transform="translate(54.688 50.811)"><path class="k" d="M2.088,0a3.816,3.816,0,0,0-1.9.472L.007.57,0,.772C-.049,2.539,1.18,4.021,2.337,5.27A223.47,223.47,0,0,0,39.12,37.183a.356.356,0,1,0,.405-.586A222.818,222.818,0,0,1,2.859,4.785C1.8,3.641.768,2.411.714,1,2.1.349,3.831.932,5.359,1.536,9.008,2.978,12.535,4.51,15.945,5.992A191.493,191.493,0,0,0,38.28,14.546c.2.06.621.185.8-.14.21-.372-.119-.671-1.205-1.66-1.128-1.029-3.478-3.167-2.833-3.927.52-.613,2.2.163,3.2.628.2.094.386.181.55.251a.357.357,0,0,0,.282-.655c-.16-.069-.34-.153-.534-.243-1.339-.621-3.172-1.472-4.042-.441-1.089,1.286,1.215,3.384,2.9,4.917l.426.39a194.481,194.481,0,0,1-21.6-8.328C12.815,3.853,9.282,2.319,5.622.871A10.082,10.082,0,0,0,2.088,0Z" transform="translate(0)"/></g></g><g transform="translate(-12.942 221.287)"><g transform="translate(0 0)"><path class="o" d="M288.119,609.592c-5.856,3.135-10.173,1.377-16.213,2.3-8.046,1.224-5.5,6.031-5.141,12.7.6,11.019-1.231,22.246.253,32.725,4.8-2.911,7.08-7.017,8.919-12.1,2.14-5.916,3.223-7.155,8.684-10.369,4.767-2.8,9.014-5.846,13.953-8.322,4.532-2.273,11.212-3.764,14.667-7.321-2.6-5.208-2.789-10.636-3.818-16.086C302.476,604.2,294.486,609.872,288.119,609.592Z" transform="translate(-177.918 -390.182)"/><path class="f" d="M255.208,624.168c-6.4-.93-19.2-2.151-19.75.143.067,8.545-.415,21.892-.371,31.39.048,10.408.006,21.688.559,31.553.346,6.161,18.616-9,19.158-32.272.109-4.715.346-7.413.266-12.963C254.986,636.2,254.791,626.294,255.208,624.168Z" transform="translate(-157.853 -403.044)"/><path class="p" d="M322.618,342.934c-1.965,1.568-8.684,6.473-9.509,5.871-2.269-2.1-.566-3.283,1.183-4.719-1.285.283-4.678.855-4.278-1.379.184-1.022,4.041-3.392,4.728-4.165,2.213-2.49,2.327-3.354,4.941-.871C320.945,338.87,322.8,341.682,322.618,342.934Z" transform="translate(-206.307 -217.493)"/><path class="q" d="M154.6,256.643c4.757,2.33,9.113,5.031,14.429,6.766,6.346,2.069,12.921,3.439,19.325,5.322s14.869,2.645,20.666,5.879c2.823,1.575,2.876,4.5,4.207,7.572,1.223,2.821,2.933,5.491,4.316,8.181.84,1.636,3.283,4.621,3.184,6.449-.261,4.823-3.575-.477-4.582-2.052-1.439-2.253-3-4.365-4.256-6.744-1.133-2.144-2.247-5.951-4.341-7.278a23.507,23.507,0,0,0-7.353-2.324c-2.675-.194-20.79,3.923-23.239,2.566-2.484-1.377-10.051-.937-12.943-.88-4.387.087-12.911-2.551-14.722-4.39-1.041-1.057-1.88-2.66-2.928-3.813a19.5,19.5,0,0,1-4.485-8.884c-.742-3.007-1.983-6.309-.229-8.715,1.512-2.075,5.422-4.03,7.892-4.362C150.462,251.75,153,255.858,154.6,256.643Z" transform="translate(-96.827 -161.695)"/><path class="r" d="M399.432,364.5H356.569L383.448,310.2h42.863Z" transform="translate(-236.446 -200.679)"/><path class="f" d="M411.006,368.046l-33.571-3.337,20.708-42.452H433.67Z" transform="translate(-249.946 -208.482)"/><path class="o" d="M382.584,904.637c3.122,5.85,1.338,10.145,2.236,16.169,1.194,8.024,6.027,5.51,12.723,5.177,11.057-.551,22.314,1.319,32.833-.115-2.9-4.8-7.009-7.086-12.1-8.94-5.927-2.158-7.166-3.243-10.366-8.7-2.795-4.763-5.828-9.01-8.292-13.941-2.262-4.527-3.729-11.191-7.283-14.649-5.236,2.572-10.683,2.735-16.154,3.739C377.232,890.3,382.891,898.293,382.584,904.637Z" transform="translate(-249.133 -569.076)"/><path class="s" d="M140.183,366.641c-1.684,4.6-.912,6.419-.278,11.172.972,7.285,2.7,7.439,10.2,8.6,15.741,2.438,33.691,6.425,49.419,9.382,12.294,2.312,31.914,6.566,37.329,20,4.885,12.122-8.239,26.877-16.678,34.441-11.263,10.1-24.2,17.906-35.073,28.441-6.973,6.758-17.171,18.052-20.634,27,1.127-6.7-1.983-16.823-3.016-23.769-1.271-8.539-2.142-15.554,1.985-23.664,1.66-3.264,7.021-8.274,9.824-10.613,4.345-3.626-.728-9.433,3.413-11.084,13.237-5.278,8.925-3.992,15.371-8.271-2.858,6.943-25.611,1.175-31.746-.054-10.81-2.166-21.721-2.435-32.445-4.688-5.749-1.208-12.3-1.847-16.093-7.1-3.451-4.78-8.564-11.965-9.86-17.461-3.318-14.057-1.731-27.206-1.2-41.361,10.958,6.774,27.369,4.794,39.976,8.145C139.58,364.725,141.584,367.262,140.183,366.641Z" transform="translate(-70.366 -231.359)"/><path class="t" d="M74.649,335.792c-3.5,9.184-1.377,25.4.613,35.588,2.615,13.386,9.131,21.448,17.573,31.66,14.632,17.7,41.922,38.493,44.61,62.754,1.31,11.815,2.137,22,8.744,32.7,6.282,10.172,16.284,13.742,17.186,26.49.9,12.733,3.53,28.538,14.782,34.865,0,0,24.623.956,35.922-.319-5.756-10.624-11.519-24.507-16-33.438a263.547,263.547,0,0,1-14.24-33.81c-7.978-23.643-9.89-53.071-23.526-74.49-5.318-8.355-12.581-15.529-19.482-22.5a85.785,85.785,0,0,1-9.685-10.942c-3.1-4.438-4.029-6.612-6.017-11.834-4.276-11.231-7.143-25.238-3.848-36.611-15.551.039-31.2.475-46.491-.71C75.369,334.085,74.022,336.872,74.649,335.792Z" transform="translate(-52.851 -216.679)"/><path class="u" d="M58.244,86.2c-10.393,7.7-12.029,15.707-15.73,27.794-6.729,21.975-12.151,48.695-26.181,67.279C31.066,197.733,59.87,198.518,79.663,195.5c7.16-1.09,19.154-3.49,19.154-3.49s-9.694-18.8-10.685-24.931a126.739,126.739,0,0,1-.648-36.222c1.218-10.866,2.467-21.582,4.364-31.87,1.743-9.448-1.465-17.518-13.916-18.785C71.5,79.553,64.251,81.749,58.244,86.2Z" transform="translate(-16.334 -51.815)"/><path class="p" d="M208.669,50.767c-4.4,4.979-10.773,8.71-16,11.139,1.952,5.255,8.526,10.193,14.341,11.938,3.688-5.2,7.8-3.963,11.841-8.846a27.659,27.659,0,0,1-9.166-13.422C209.615,53.5,207.977,48.917,208.669,50.767Z" transform="translate(-130.416 -32.552)"/><path class="v" d="M396.778,986.729c-.959,6.374-2.238,19.124.06,19.686,8.573-.03,21.961.506,31.491.5,10.442,0,21.759.086,31.658-.425,6.182-.319-8.954-18.592-32.3-19.23-4.729-.129-7.436-.375-13-.319C408.85,987,398.91,987.154,396.778,986.729Z" transform="translate(-261.663 -638.357)"/><path class="w" d="M376.45,467.356l-52.622,2.224v-7.662H378.7v3.1A2.348,2.348,0,0,1,376.45,467.356Z" transform="translate(-215.265 -298.835)"/><path class="x" d="M287.42,462.99l-27.6-6.46a2.347,2.347,0,0,1-1.816-2.283v-3.958l29.414,5.038Z" transform="translate(-172.682 -291.311)"/><path class="y" d="M253.19,18.6c5.846-7.931,14.387-9.7,24.313-4.689,7.8,3.938,8.166,17.808,2.081,26.9-3.2,4.779-11.028,17.055-26.237,12.887-12.165-3.334-5.237-23.2-3.605-29.518C249.564,24.985,252.386,17.979,253.19,18.6Z" transform="translate(-165.109 -7.181)"/><path class="j" d="M326.66,34.419c4.729-.394,3.011,25.635,3.011,25.635l12.462-.348s2.758-25.072-10.515-30A24.838,24.838,0,0,0,326.66,34.419Z" transform="translate(-217.098 -19.219)"/><g transform="translate(115.028 10.687)"><path class="j" d="M354.9,59.867l-.059,0a.587.587,0,0,1-.528-.64c.865-8.849-4.734-23.945-11.867-27.855a.587.587,0,1,1,.568-1.027c7.686,4.214,13.376,19.724,12.471,29A.59.59,0,0,1,354.9,59.867Z" transform="translate(-342.139 -30.27)"/></g><path class="o" d="M289.066,325.546c.825.151,1.943,3.245,3.008,4.4a10.4,10.4,0,0,0,5.523,2.924c2.737.683,9.539,1.657,12.06.03,5.087-3.284-5.826-4.753-7.647-5.008-3.053-.426-10-4.806-12.154-2.511C290.083,325.239,288.839,325.686,289.066,325.546Z" transform="translate(-192.758 -210.074)"/><path class="z" d="M295.2,448.245l-37.689.727,25.866,4.574,52.422-.475Z" transform="translate(-172.363 -289.989)"/><g transform="translate(60.743 100.516)"><path class="aa" d="M252.035,343.337c-3.308-1-5.689-3.91-9.471-5.342-6.929-2.624-11.374-13.256-15.319-19.289a113.491,113.491,0,0,0-14.12-17.434c-4.434-4.619-9.466-12.239-15.12-15.279.041.314.081.719.128,1-4.924.813-7.773-3.335-9.546,3.036-.959,3.447,1.706,11.389,3,14.44,3.27,7.7,9.54,14.686,15.278,20.59,6.1,6.277,14.951,8.841,20.667,14.7,5.05,5.176,1.876,12.835,6.872,18.116,1.266.793,3.633-.676,5.17-.1,1.278.477,5.72-.22,9.106-1.9,3.343,1.177,1.544,2.791,5.49.281,1.358-1.014-2.458-5.368-6.853-9.771-.213-.307-.447-.643-.72-1.027,3.5,3.59,8.825,3.225,13.826,2.346C261.585,346.638,258.412,345.256,252.035,343.337Z" transform="translate(-188.384 -285.537)"/><path class="ab" d="M215.043,285.038c.071.036.139.081.208.118C215.194,284.712,215.132,284.461,215.043,285.038Z" transform="translate(-205.631 -284.702)"/></g><path class="r" d="M181.839,119.118c7.452-.391,10.031,3.32,12.158,13.683,1.724,8.394,1.567,12.007,1.145,20.7-.755,15.567,4.963,30.9,15.276,43.459-5.626,7.135-29.427,9.028-37.994,9.334-1.49-28.511,7.4-33.7-1.177-53.949C163.8,134.756,168.454,119.82,181.839,119.118Z" transform="translate(-114.262 -77.045)"/><path class="j" d="M263.013,12.031c-5.7-17.056-32.334-13.5-39.927-4.548C213.96,18.241,215.175,43,215.861,56.374c3.574.855,27.758.379,27.758.379s-2.99-19.723,1.357-27.051c1.437-2.423,13.468-.015,15.837-2.56C264.77,22.892,261.934,12.3,263.013,12.031Z" transform="translate(-145.114 0)"/><g transform="translate(105.158 38.716)"><path class="ac" d="M318.669,114.871a.585.585,0,0,1-.221-.043c-3-1.215-3.376-1.967-4.23-4.387a.589.589,0,0,1,1.111-.389c.765,2.17.925,2.62,3.563,3.691a.586.586,0,0,1-.222,1.129Z" transform="translate(-314.184 -109.658)"/></g><path class="k" d="M98.143,448.164a.182.182,0,1,0-.179.184h0a.18.18,0,0,0,.179-.184Zm-7.68-16.945a.185.185,0,0,0,0-.263h0a.17.17,0,0,0-.24,0,.116.116,0,0,0-.016.018.179.179,0,0,0,0,.252.189.189,0,0,0,.264,0Zm3.336,8.83a.2.2,0,0,0,.094-.25.189.189,0,0,0-.345.156A.2.2,0,0,0,93.8,440.049Zm24.213-1.943a.351.351,0,0,0,.2-.45.338.338,0,0,0-.424-.216l-.018.006a.351.351,0,0,0-.2.45.347.347,0,0,0,.441.21Zm-7.92,2.9a.35.35,0,1,0-.46-.215h0A.376.376,0,0,0,110.091,441Zm-7.937,2.9a.341.341,0,0,0,.207-.437l0-.011a.338.338,0,0,0-.424-.216l-.018.006a.373.373,0,0,0-.215.457A.36.36,0,0,0,102.155,443.9Zm14.891,12.169a.347.347,0,1,0-.359.342.356.356,0,0,0,.359-.342Zm-8.438-.346a.347.347,0,1,0-.359.342.358.358,0,0,0,.359-.342Zm-2.543-29.744a.35.35,0,0,0,.013-.494.341.341,0,0,0-.481-.023s0,0,0,0a.334.334,0,0,0-.049.469c.006.007.012.013.018.021A.374.374,0,0,0,106.065,425.979Zm-6.219,5.7a.368.368,0,0,0,.025-.5.354.354,0,0,0-.5-.014.344.344,0,0,0-.019.489l0,0a.342.342,0,0,0,.481.026S99.845,431.681,99.846,431.681Zm-6.209,5.693a.331.331,0,0,0,.032-.469.105.105,0,0,0-.012-.012.347.347,0,0,0-.488-.036l-.013.012a.349.349,0,1,0,.477.511Zm22.849,26.931a.31.31,0,1,0-.351.263h0A.316.316,0,0,0,116.487,464.305Zm-8.159-30.382a.328.328,0,0,0,.058-.448.3.3,0,0,0-.421-.061l-.011.008a.307.307,0,0,0-.068.432l0,0a.328.328,0,0,0,.439.064Zm-6,4.522a.308.308,0,0,0,.055-.43.3.3,0,0,0-.421-.061l-.011.008a.309.309,0,0,0-.069.432l0,0a.319.319,0,0,0,.442.047Zm-6.015,4.547a.309.309,0,0,0,.069-.432l0,0a.3.3,0,0,0-.409-.072.118.118,0,0,0-.024.019.309.309,0,0,0-.069.432l0,0a.321.321,0,0,0,.433.053Zm15.5,7.032a.313.313,0,0,0,.214-.385.307.307,0,0,0-.374-.22.313.313,0,1,0,.16.605Zm-7.3,1.893a.3.3,0,0,0,.227-.355.094.094,0,0,1,0-.018.307.307,0,0,0-.374-.22.327.327,0,0,0-.233.38.312.312,0,0,0,.384.213Zm-9.749-25.1a.294.294,0,0,0-.1-.4l-.016-.009a.311.311,0,0,0-.427.1.025.025,0,0,1-.006.009.318.318,0,0,0,.12.425.307.307,0,0,0,.419-.107s0-.008.006-.012Zm-3.809,6.489a.31.31,0,1,0-.538-.308.314.314,0,0,0,.106.416.308.308,0,0,0,.424-.093.1.1,0,0,1,.008-.015Zm32.9,27.872a.371.371,0,0,0,.248-.449.36.36,0,0,0-.439-.255.368.368,0,0,0-.248.449.36.36,0,0,0,.439.255Zm-8.4,2.273a.358.358,0,1,0-.439-.254.358.358,0,0,0,.439.254Zm-13.8-31.323a.377.377,0,0,0-.138-.5.362.362,0,1,0,.138.5Zm-4.322,7.528a.368.368,0,0,0-.132-.491.36.36,0,1,0-.361.623.37.37,0,0,0,.493-.131Zm15.461,7.773a.383.383,0,0,0,.064-.51.364.364,0,0,0-.5-.053.352.352,0,0,0-.074.494l0,.006a.364.364,0,0,0,.511.063Zm-6.89,5.312a.363.363,0,0,0,.065-.509h0a.35.35,0,0,0-.493-.059h0a.356.356,0,0,0,.428.569Zm11.6-1.657a.356.356,0,1,0-.508-.081.364.364,0,0,0,.508.081Zm-7.073,5a.362.362,0,0,0,.08-.505.37.37,0,0,0-.5-.087.38.38,0,0,0-.091.511.371.371,0,0,0,.507.081Zm-8.7-13.918a.366.366,0,0,0-.121-.5.356.356,0,0,0-.488.114.347.347,0,0,0,.089.484.032.032,0,0,0,.014.007.36.36,0,0,0,.5-.1.012.012,0,0,0,.007-.008Z" transform="translate(-64.088 -275.193)"/></g></g></g></svg>