<svg xmlns="http://www.w3.org/2000/svg" xmlns:xlink="http://www.w3.org/1999/xlink" width="660.216" height="470.522" viewBox="0 0 660.216 470.522"><defs><style>.a{fill:#d6d7d8;}.b{fill:#eee;}.c{fill:#e7f0fe;}.d,.e{fill:#b0cdfc;}.d,.f{opacity:0.44;}.f{fill:#bbd4fd;}.g{fill:#1d72d8;}.h{opacity:0.47;}.i{fill:#428dfc;}.j{fill:#79aefd;}.k{fill:#a1c3fc;}.l{fill:#fff;}.m{fill:#d62929;}.n{fill:#78a9ef;}.o,.v{fill:none;}.o{stroke:#78a9ef;stroke-width:2.153px;}.o,.v,.z{stroke-miterlimit:10;}.p{fill:#f2a19c;}.q{fill:#ffbeb6;}.r{fill:#e94a47;}.s{fill:#f7931e;}.t,.z{fill:#151a4f;}.u{fill:#23286b;}.v{stroke:#23286b;stroke-linecap:round;stroke-width:1.226px;}.w{fill:url(#a);}.x{fill:#fbb03b;}.y{fill:url(#b);}.z{stroke:#000;stroke-width:1.323px;}.aa{fill:url(#c);}.ab{fill:url(#d);}.ac{fill:url(#e);}.ad{fill:url(#f);}.ae{fill:url(#g);}.af{fill:url(#h);}</style><linearGradient id="a" x1="24.928" y1="-11.708" x2="24.486" y2="-15.189" gradientUnits="objectBoundingBox"><stop offset="0" stop-color="#428dfc"/><stop offset="1" stop-color="#1d72d8"/></linearGradient><linearGradient id="b" x1="29.236" y1="-14.503" x2="23.553" y2="-14.461" xlink:href="#a"/><linearGradient id="c" x1="17.852" y1="-13.276" x2="23.717" y2="-13.276" gradientUnits="objectBoundingBox"><stop offset="0" stop-color="#a1c3fc"/><stop offset="1" stop-color="#81aef2"/></linearGradient><linearGradient id="d" x1="11.766" y1="-8.231" x2="17.632" y2="-8.231" gradientUnits="objectBoundingBox"><stop offset="0" stop-color="#23286b"/><stop offset="1" stop-color="#151a4f"/></linearGradient><linearGradient id="e" x1="11.031" y1="-24.037" x2="15.511" y2="-24.037" xlink:href="#c"/><linearGradient id="f" x1="128.035" y1="12.778" x2="127.278" y2="11.32" gradientUnits="objectBoundingBox"><stop offset="0" stop-color="#e94a47"/><stop offset="1" stop-color="#d73f43"/></linearGradient><linearGradient id="g" x1="91.071" y1="12.508" x2="91.936" y2="10.387" xlink:href="#f"/><linearGradient id="h" x1="31.805" y1="199.669" x2="45.3" y2="199.669" xlink:href="#f"/></defs><g transform="translate(-127 -48)"><g transform="translate(171.554 48)"><g transform="translate(19.52 18.134)"><rect class="a" width="2.783" height="226.923"/></g><g transform="translate(20.217 244.361)"><rect class="a" width="367.41" height="2.784"/></g><rect class="a" width="13.917" height="13.922" transform="translate(13.953 239.488)"/><path class="a" d="M0,20.919,20.912,0,41.824,20.919Z"/><path class="a" d="M569.023,332.024l20.912,20.919-20.912,20.919Z" transform="translate(-184.894 -107.886)"/><g transform="translate(82.843 37.625)"><rect class="b" width="2.783" height="179.589"/></g><g transform="translate(163.561 37.625)"><rect class="b" width="2.783" height="179.589"/></g><g transform="translate(244.28 37.625)"><rect class="b" width="2.783" height="179.589"/></g><g transform="translate(324.999 37.625)"><rect class="b" width="2.783" height="179.589"/></g><g transform="translate(52.922 85.654)"><rect class="b" width="322.875" height="2.784"/></g><g transform="translate(52.922 166.4)"><rect class="b" width="322.875" height="2.784"/></g></g><g transform="translate(271.768 58)"><g transform="translate(0 0)"><path class="c" d="M157.187,109.92A53.856,53.856,0,0,1,136.368,6.4a105.047,105.047,0,1,0,70.186,71.187A53.851,53.851,0,0,1,157.187,109.92Z" transform="translate(-0.45 -1.814)"/><path class="d" d="M271.976,77.781A53.866,53.866,0,0,0,201.79,6.6,105.354,105.354,0,0,1,271.976,77.781Z" transform="translate(-65.872 -2.01)"/><path class="e" d="M152.863,58.279A53.85,53.85,0,0,0,256.078,79.792,105.353,105.353,0,0,0,185.892,8.606,53.861,53.861,0,0,0,152.863,58.279Z" transform="translate(-49.974 -4.021)"/><path class="f" d="M152.863,58.279A53.85,53.85,0,0,0,256.078,79.792,105.353,105.353,0,0,0,185.892,8.606,53.861,53.861,0,0,0,152.863,58.279Z" transform="translate(-49.974 -4.021)"/><rect class="g" width="49.287" height="49.287" transform="translate(75.002 60.603)"/><g class="h" transform="translate(158.027 71.59)"><path class="i" d="M243.77,143.979h13.845a15.974,15.974,0,0,1-2.456.593h-8.891C245.421,144.4,244.617,144.19,243.77,143.979Zm-3.133-1.229h20.111a10.215,10.215,0,0,0,1.185-.593h-22.44A9.549,9.549,0,0,0,240.637,142.75Zm-2.921-1.82h26.208c.3-.212.551-.381.847-.593h-27.69A8.165,8.165,0,0,0,237.716,140.93Zm-1.566-1.779h30.1c.212-.212.466-.381.677-.593H235.853C235.937,138.728,236.022,138.94,236.149,139.151Zm-.847-1.821h32.813a7.19,7.19,0,0,1,.551-.593H235.133C235.176,136.95,235.26,137.119,235.3,137.331Zm-.466-1.821h34.8a5.061,5.061,0,0,0,.423-.593H234.752A3.352,3.352,0,0,1,234.837,135.51Zm-.212-1.778h36.242a4.253,4.253,0,0,0,.339-.593H234.54C234.583,133.309,234.583,133.52,234.625,133.732Zm-.085-1.821h37.344c.084-.211.211-.381.3-.593H234.54Zm.339-2.032c-.043.084-.043.127-.084.212h37.894a3.313,3.313,0,0,0,.211-.593H235.133Zm2.456-1.779a1.523,1.523,0,0,1-.381.169h36.327a3.125,3.125,0,0,1,.169-.593h-35.4A4.041,4.041,0,0,1,237.335,128.1Zm2.328-1.608H273.7a2.843,2.843,0,0,0,.084-.593H240.255A3.856,3.856,0,0,1,239.663,126.492Zm1.652-1.778H274c0-.212.043-.381.043-.593h-32.3C241.611,124.291,241.484,124.5,241.315,124.714Zm1.143-1.821h31.627V122.3H242.754C242.67,122.47,242.543,122.681,242.458,122.893Zm.762-1.821H274a2.9,2.9,0,0,0-.084-.593H243.39C243.347,120.692,243.263,120.9,243.22,121.073Zm.466-1.778H273.7c-.043-.212-.084-.423-.127-.593H243.77A2.493,2.493,0,0,0,243.685,119.294Zm.169-1.821H273.2c-.084-.212-.127-.423-.211-.593H243.855C243.855,117.05,243.855,117.262,243.855,117.474ZM272.1,115.06H243.644a2.843,2.843,0,0,1,.084.593h28.664C272.307,115.484,272.18,115.272,272.1,115.06Zm-1.186-1.778H243.178c.043.212.127.381.169.593h27.986A3,3,0,0,0,270.91,113.282Zm-1.609-1.821h-26.42a2.791,2.791,0,0,0,.043.593h27.013C269.682,111.842,269.471,111.631,269.3,111.462Zm-2.244-1.693c-.084-.043-.127-.084-.212-.127H243.432a2.713,2.713,0,0,0-.339.593h24.684C267.523,110.106,267.311,109.895,267.057,109.768Zm-5.335-1.9H246.607a8.021,8.021,0,0,0-1.693.593h19.137A14.352,14.352,0,0,0,261.722,107.863Z" transform="translate(-234.54 -107.863)"/></g><path class="a" d="M286.474,231.313l-7.839-10.206a12.688,12.688,0,0,0-4.3,1.983l8.475,11.035a1.413,1.413,0,0,1-2.241,1.721l-8.317-10.83a13.04,13.04,0,0,0-2.447,4.392l7.017,9.137a1.413,1.413,0,1,1-2.241,1.721l-5.511-7.176a21.847,21.847,0,0,0,4.765,14.788c.083.109.168.215.253.322a32.513,32.513,0,0,0-2.3,2.771c-2,2.724-4.338,7.015-4.1,11.984l1.411-.067c-.217-4.555,1.962-8.54,3.829-11.08a30.958,30.958,0,0,1,2.075-2.517,21.786,21.786,0,0,0,11.955,7.1l-5.236-6.819a1.413,1.413,0,0,1,2.241-1.721l6.748,8.787a12.335,12.335,0,0,0,4.84-1.276l-7.841-10.21a1.413,1.413,0,1,1,2.241-1.721l7.949,10.35a12.706,12.706,0,0,0,2.888-3.817l-7.177-9.345a1.413,1.413,0,1,1,2.241-1.721l6.169,8.032a35.514,35.514,0,0,0,1.278-5.913l-3.872-5.043a1.413,1.413,0,0,1,2.241-1.721l2.062,2.686c.456-5.746.385-11.074,1.59-13.241-3.1.3-8.107-1.186-13.466-2.223l2.669,3.476a1.413,1.413,0,0,1-2.241,1.721l-4.5-5.857a30.446,30.446,0,0,0-5.985-.215l6.909,9a1.411,1.411,0,1,1-2.239,1.719Z" transform="translate(-87.28 -72.883)"/><rect class="j" width="4.213" height="4.214" transform="translate(116.859 30.002) rotate(167.151)"/><rect class="k" width="4.245" height="4.245" transform="translate(93.453 90.721) rotate(-168.802)"/><path class="l" d="M87.627,21.051l17.423,4.121-18.3,8.337,5.825-6.929Z" transform="translate(-28.491 -8.065)"/><g transform="translate(52.512 17.675)"><path class="l" d="M78.56,32.017a.322.322,0,0,1-.113-.624c5.958-2.231,9-3.162,15.159-3.395a.308.308,0,0,1,.334.309.322.322,0,0,1-.309.334c-6.068.229-9.069,1.15-14.958,3.355A.323.323,0,0,1,78.56,32.017Z" transform="translate(-78.238 -27.996)"/></g><path class="l" d="M40.345,228.252l3-22.176,12.6,21.753-9.332-6.4Z" transform="translate(-13.413 -68.185)"/><g transform="translate(32.113 148.24)"><path class="l" d="M54.374,240.375a.321.321,0,0,1-.289-.181c-3.5-7.132-5.025-10.8-6.062-18.42a.323.323,0,0,1,.276-.363.318.318,0,0,1,.363.276c1.025,7.532,2.538,11.158,6,18.224a.322.322,0,0,1-.289.464Z" transform="translate(-48.019 -221.407)"/></g><path class="l" d="M188.041,54.9l-2.228,8.669-3.991-9.229,3.408,2.979Z" transform="translate(-59.383 -18.883)"/><g transform="translate(116.674 16.964)"><path class="l" d="M182.328,50.739a.323.323,0,0,1-.322-.317c0-.2,0-.473-.006-.8-.05-13.38-2.9-20.8-8.465-22.048a.322.322,0,1,1,.141-.628c5.9,1.324,8.917,8.953,8.968,22.675,0,.32,0,.584.006.787a.323.323,0,0,1-.317.328Z" transform="translate(-173.283 -26.942)"/></g><g transform="translate(156.039 77.404)"><rect class="g" width="6.108" height="6.108"/></g><path class="l" d="M241.642,84H220.852a10.879,10.879,0,1,1,21.757,0Z" transform="translate(-72.066 -24.985)"/><path class="m" d="M243.78,82.917h-4.511a8.623,8.623,0,0,0-17.247,0h-4.511a13.135,13.135,0,0,1,26.269,0Z" transform="translate(-70.98 -23.899)"/><g transform="translate(156.456 63.061)"><path class="m" d="M236.724,106.262h-4.511V95.228H246.3v4.511h-9.577Z" transform="translate(-232.213 -95.228)"/></g><g transform="translate(1.765 27.408)"><path class="g" d="M3.064,42.414v3.935l5.5-3.935Z" transform="translate(-3.064 -42.414)"/><path class="g" d="M14.732,42.414,3.064,50.76v5.392L22.269,42.414Z" transform="translate(-3.064 -42.414)"/><path class="g" d="M32.365,42.414H28.437L3.064,60.563v5.392L32.365,45Z" transform="translate(-3.064 -42.414)"/><path class="g" d="M32.365,52.774,3.064,73.732v1.349H8.715l23.65-16.916Z" transform="translate(-3.064 -45.78)"/><path class="g" d="M38.053,67.3,20.571,79.8h7.538l9.944-7.112Z" transform="translate(-8.752 -50.499)"/><path class="g" d="M44.65,81.818l-3.777,2.7H44.65Z" transform="translate(-15.349 -55.217)"/></g><circle class="l" cx="4.327" cy="4.327" r="4.327" transform="translate(186.912 90.364)"/><circle class="l" cx="4.327" cy="4.327" r="4.327" transform="translate(186.912 106.145)"/><g transform="translate(103.218 56.49)"><path class="k" d="M186.981,98.206l-33.309,6.2a18.147,18.147,0,0,0-.09,6.293l35.747-6.655A18.05,18.05,0,0,0,186.981,98.206Z" transform="translate(-153.35 -89.625)"/><path class="k" d="M172.908,85.494l-7.048,1.312a18.243,18.243,0,0,0-9.056,7.962l27.444-5.109A18.1,18.1,0,0,0,172.908,85.494Z" transform="translate(-154.472 -85.494)"/><path class="k" d="M189.14,133.047l-17.6,3.277a18.174,18.174,0,0,0,17.6-3.277Z" transform="translate(-159.261 -100.945)"/><path class="k" d="M190.5,114.368l-34.585,6.438a18.224,18.224,0,0,0,4.032,5.525l28.8-5.361A18.086,18.086,0,0,0,190.5,114.368Z" transform="translate(-154.185 -94.876)"/></g><path class="l" d="M231.362,243.058l-14.975,6.425,8.868-16.014-.506,8.224Z" transform="translate(-70.615 -77.086)"/><g transform="translate(151.102 124.434)"><path class="l" d="M224.56,229.372l-.277-.583a19.749,19.749,0,0,0,5.406-4.426c1.8-1.862,3.654-3.787,6.094-4.766a18.459,18.459,0,0,1,5.08-1c.811-.081,1.649-.166,2.456-.3,1.407-.236,4.794-1.074,5.846-3.753a9.1,9.1,0,0,0,.249-4.14,8.71,8.71,0,0,1,.455-4.748c1.487-2.967,5.084-3.121,8.564-3.27,3.43-.147,6.67-.285,8.054-2.856a8.244,8.244,0,0,0,.624-4.035,9.636,9.636,0,0,1,.567-4.1c1.33-2.93,5.034-3.692,7.124-3.885.593-.055,1.194-.091,1.8-.126a14.283,14.283,0,0,0,6.062-1.242l.309.565a14.754,14.754,0,0,1-6.334,1.32c-.595.036-1.189.071-1.775.125-1.95.181-5.4.876-6.6,3.51a9.024,9.024,0,0,0-.508,3.83,8.831,8.831,0,0,1-.7,4.344c-1.558,2.893-5.135,3.046-8.595,3.193s-6.7.286-8.015,2.914a8.116,8.116,0,0,0-.389,4.4,9.707,9.707,0,0,1-.29,4.431c-.826,2.1-3.137,3.616-6.34,4.153-.828.138-1.677.224-2.5.307a17.982,17.982,0,0,0-4.9.956c-2.312.928-4.041,2.72-5.87,4.616A20.244,20.244,0,0,1,224.56,229.372Z" transform="translate(-224.282 -186.142)"/></g><rect class="l" width="4.212" height="4.212" transform="translate(203.189 8.013) rotate(40.567)"/><g transform="translate(18.777 91.65)"><path class="n" d="M30.843,159.2H28.265V137.578h63.52v2.578H30.843Z" transform="translate(-28.265 -137.578)"/></g><line class="o" y2="0.616" transform="translate(31.773 92.939)"/><g transform="translate(20.769 93.189)"><rect class="n" width="1.289" height="15.044" transform="matrix(0.819, 0.573, -0.573, 0.819, 8.624, 0)"/></g><g transform="translate(27.546 93.189)"><rect class="n" width="1.289" height="15.044" transform="matrix(0.819, 0.573, -0.573, 0.819, 8.624, 0)"/></g><g transform="translate(29.125 93.188)"><rect class="n" width="1.289" height="23.506" transform="matrix(0.819, 0.573, -0.573, 0.819, 13.476, 0)"/></g><g transform="translate(35.326 93.188)"><rect class="n" width="1.289" height="24.446" transform="matrix(0.819, 0.573, -0.573, 0.819, 14.014, 0)"/></g><g transform="translate(47.879 93.189)"><rect class="n" width="1.289" height="15.044" transform="matrix(0.819, 0.573, -0.573, 0.819, 8.624, 0)"/></g><g transform="translate(54.657 93.189)"><rect class="n" width="1.289" height="15.044" transform="matrix(0.819, 0.573, -0.573, 0.819, 8.624, 0)"/></g><g transform="translate(61.435 93.19)"><rect class="n" width="1.289" height="15.044" transform="matrix(0.819, 0.573, -0.573, 0.819, 8.624, 0)"/></g><g transform="translate(88.966 32.381)"><rect class="n" width="1.289" height="6.596" transform="translate(3.898 0) rotate(36.222)"/></g><g transform="translate(89.165 35.096)"><rect class="n" width="1.289" height="14.327" transform="matrix(0.819, 0.573, -0.573, 0.819, 8.213, 0)"/></g><g transform="translate(92.676 41.483)"><rect class="n" width="1.289" height="12.225" transform="matrix(0.819, 0.573, -0.573, 0.819, 7.008, 0)"/></g><g transform="translate(69.308 93.141)"><rect class="n" width="1.454" height="13.162" transform="matrix(0.819, 0.573, -0.573, 0.819, 7.547, 0)"/></g><g transform="translate(87.058 145.836)"><rect class="n" width="10.038" height="1.289" transform="matrix(0.819, 0.574, -0.574, 0.819, 0.739, 0)"/></g><g transform="translate(87.058 150.359)"><rect class="n" width="10.038" height="1.289" transform="matrix(0.819, 0.574, -0.574, 0.819, 0.739, 0)"/></g><g transform="translate(82.431 151.413)"><rect class="n" width="15.683" height="1.289" transform="matrix(0.819, 0.574, -0.574, 0.819, 0.739, 0)"/></g><g transform="translate(81.92 155.549)"><rect class="n" width="16.311" height="1.289" transform="matrix(0.819, 0.574, -0.574, 0.819, 0.739, 0)"/></g><g transform="translate(87.058 163.926)"><rect class="n" width="10.038" height="1.289" transform="matrix(0.819, 0.574, -0.574, 0.819, 0.739, 0)"/></g><g transform="translate(87.057 168.448)"><rect class="n" width="10.038" height="1.289" transform="matrix(0.819, 0.574, -0.574, 0.819, 0.739, 0)"/></g><g transform="translate(87.057 172.971)"><rect class="n" width="10.038" height="1.289" transform="matrix(0.819, 0.574, -0.574, 0.819, 0.739, 0)"/></g><g transform="translate(88.086 178.252)"><rect class="n" width="8.782" height="1.289" transform="matrix(0.819, 0.573, -0.573, 0.819, 0.739, 0)"/></g><g transform="translate(33.012 62.843)"><path class="n" d="M50.189,118.161l-.837-.98a148.746,148.746,0,0,1,22.616-15.937l-2.154-3.807.994-.091A79.181,79.181,0,0,0,84.346,94.9l.437,1.208q-5.651,2.577-11.057,5.616l1.592,2.812a16.306,16.306,0,0,1,4.834-5.55l.755,1.044a15.005,15.005,0,0,0-4.954,6.151l-.516,1.183-2.832-5A147.6,147.6,0,0,0,50.189,118.161ZM71.915,98.534l1.174,2.075q2.893-1.626,5.86-3.124C76.62,97.938,74.27,98.289,71.915,98.534Z" transform="translate(-49.352 -94.905)"/></g><g transform="translate(45.062 116.905)"><path class="n" d="M77.218,214.049c-.923-3.773-2.312-7.775-5.621-8.838L67.2,203.8l4.614.155q2.255.075,4.509-.069a204.856,204.856,0,0,1,.242-28.9l1.285.1a203.627,203.627,0,0,0-.242,28.694,46.613,46.613,0,0,0,5.653-.873l1.462-.32-4.231,7.016-1.1-.666,2.7-4.478c-1.455.271-2.924.474-4.4.608q.3,4.388.792,8.754Zm-2.934-8.79a9.792,9.792,0,0,1,2.373,3.164q-.137-1.625-.249-3.252Q75.347,205.238,74.284,205.259Z" transform="translate(-67.201 -174.989)"/></g><g transform="translate(78.504 30.49)"><path class="n" d="M139.063,74.363,127.62,65.638l-10.88,7.971.389-20.04,10.986-6.59,10.879,6.14ZM127.635,64.028l10.131,7.724-.059-17.879-9.573-5.4L118.4,54.307l-.325,16.722Z" transform="translate(-116.74 -46.979)"/></g><g transform="translate(78.466 55.972)"><path class="n" d="M127.75,93.484l-11.067-7.7.736-1.058,10.37,7.214,10.474-6.533.682,1.094Z" transform="translate(-116.684 -84.727)"/></g><g transform="translate(88.8 31.287)"><rect class="n" width="1.289" height="17.019" transform="translate(0.075 0) rotate(0.252)"/></g><g transform="translate(83.674 120.497)"><path class="n" d="M135.285,183.445a84.143,84.143,0,0,1-9.746-.566,1.289,1.289,0,0,1,.3-2.56,81.726,81.726,0,0,0,16.048.281,1.289,1.289,0,1,1,.209,2.569C139.834,183.353,137.559,183.445,135.285,183.445Z" transform="translate(-124.399 -180.309)"/></g><g transform="translate(103.927 169.928)"><path class="n" d="M165.288,256.669a84.162,84.162,0,0,1-9.749-.566,1.289,1.289,0,0,1,.3-2.56,81.718,81.718,0,0,0,16.048.282,1.289,1.289,0,1,1,.209,2.569C169.834,256.578,167.56,256.669,165.288,256.669Z" transform="translate(-154.4 -253.533)"/></g><g transform="translate(103.927 176.398)"><path class="n" d="M165.288,266.253a84.155,84.155,0,0,1-9.749-.566,1.289,1.289,0,0,1,.3-2.56,81.668,81.668,0,0,0,16.048.282,1.289,1.289,0,1,1,.209,2.569C169.834,266.161,167.56,266.253,165.288,266.253Z" transform="translate(-154.4 -263.118)"/></g><g transform="translate(91.571 112.096)"><path class="n" d="M137.689,187.235a1.289,1.289,0,0,1-1.282-1.178A84.259,84.259,0,0,1,136.673,169a1.289,1.289,0,1,1,2.56.3,81.667,81.667,0,0,0-.258,16.529,1.289,1.289,0,0,1-1.173,1.395A1.051,1.051,0,0,1,137.689,187.235Z" transform="translate(-136.097 -167.865)"/></g><g transform="translate(64.922 134.619)"><path class="n" d="M113.552,213.623c-8.207,0-16.931-2.172-16.931-6.2s8.724-6.2,16.931-6.2,16.931,2.172,16.931,6.2S121.759,213.623,113.552,213.623Zm0-11.105c-9.218,0-15.642,2.587-15.642,4.907s6.424,4.908,15.642,4.908,15.642-2.587,15.642-4.908S122.77,202.518,113.552,202.518Z" transform="translate(-96.621 -201.23)"/></g><g transform="translate(64.922 183.625)"><path class="n" d="M113.552,280.021c-8.207,0-16.931-2.172-16.931-6.2H97.91c0,2.321,6.424,4.908,15.642,4.908s15.642-2.587,15.642-4.908h1.289C130.483,277.849,121.759,280.021,113.552,280.021Z" transform="translate(-96.621 -273.824)"/></g><g transform="translate(97.495 142.274)"><rect class="n" width="1.289" height="43.085"/></g><g transform="translate(64.552 140.942)"><rect class="n" width="1.289" height="43.085"/></g><path class="m" d="M252.5,192.553a.225.225,0,0,0-.168.286h0a.225.225,0,0,0,.286.168h0a.225.225,0,0,0,.168-.286h0a.224.224,0,0,0-.286-.168Zm-20.818,9.9a.234.234,0,1,0-.247.4h0a.225.225,0,0,0,.323-.075c.141-.1.037-.243-.075-.323Zm5.181,2.784a.234.234,0,0,0-.247.4h0a.225.225,0,0,0,.323-.075h0c.07-.052.037-.243-.075-.323Zm4.723-10.553a.261.261,0,1,0,.31.421.275.275,0,0,0,.047-.3C241.853,194.6,241.731,194.584,241.59,194.687Zm3.718,4.615a.261.261,0,0,0,.31.421.275.275,0,0,0,.047-.3c-.094-.2-.276-.229-.356-.117Zm-14.492,14.98a.246.246,0,0,0-.074.487h0a.264.264,0,0,0,.28-.206h0A.265.265,0,0,0,230.817,214.282Zm5.88.648a.246.246,0,1,0,.206.28h0a.265.265,0,0,0-.206-.28Zm9.472-23.716c-.07.052-.159.225-.047.3.052.07.225.159.3.047.07-.052.158-.225.047-.3h0c-.042-.132-.164-.15-.3-.046Zm2.945,4.373c-.07.052-.158.225-.047.3a.218.218,0,0,0,.351-.258h0a.275.275,0,0,0-.3-.047ZM233.98,209.47c-.122-.019-.253.024-.271.146s.033.192.146.271h0c.122.019.253-.024.271-.146h0c.018-.122-.024-.253-.146-.271Zm5.136,1.032c-.122-.019-.253.024-.271.146s.033.192.146.271h0c.122.019.253-.024.271-.146h0c.018-.121-.024-.253-.146-.271Zm1.69-10.267a.234.234,0,1,0,.076.323.225.225,0,0,0-.076-.323Zm.378-11.464a.234.234,0,1,0,.075.323.225.225,0,0,0-.075-.323Zm5.027,3.382a.234.234,0,1,0,.075.323.225.225,0,0,0-.075-.323Zm5.1,3.331a.234.234,0,1,0,.076.323A.476.476,0,0,0,251.31,195.485Zm-15.246,18.289a.234.234,0,1,0,.286.168c.019-.122-.154-.21-.286-.168Zm22.9-21.918a.23.23,0,0,0-.365-.055m-19.574,9.1a.246.246,0,1,0,.206.28h0a.265.265,0,0,0-.206-.28Zm-.24-4.147a.246.246,0,0,0-.074.487.226.226,0,0,0,.28-.206.265.265,0,0,0-.206-.28Zm5.891,1.4a.264.264,0,0,0-.28.206.225.225,0,0,0,.206.28.408.408,0,0,0,.342-.2c-.043-.131-.146-.271-.268-.289Zm7.3-7.855a.225.225,0,0,0-.323.075h0c-.079.112-.037.243.066.383.112.079.243.037.383-.066a.37.37,0,0,0-.126-.393Zm.7,2.349a.195.195,0,1,0,.084.262h0c.019-.122-.023-.253-.084-.262Z" transform="translate(-75.212 -62.549)"/><path class="l" d="M172.218,195.483h31.439L188.741,210.4S172.218,195.044,172.218,195.483Z" transform="translate(-56.263 -64.74)"/><path class="l" d="M191.813,216.218S176.979,230,176.979,229.609H205.2" transform="translate(-57.81 -71.481)"/><path class="m" d="M204.144,224.527H175.5l-1.6-3.85L197.774,196.8h-26.9v-4.511H203.22l1.6,3.85-23.874,23.874h23.2Z" transform="translate(-55.826 -63.706)"/></g></g><g transform="translate(509.763 137.109)"><g transform="translate(0 0)"><path class="p" d="M27.937,131.895a.867.867,0,0,1-1.1-.406,2.508,2.508,0,0,1-.23-1.265c-.024-3.525.576-6.561.552-10.085,0-.641.462-2.157,1.093-2.039.631,4.8.5,8.417,1.385,13.182-.483-4.489-.9-7.747-.04-12.18a2.938,2.938,0,0,1,.791-1.735c1.649,2.054,1.776,4.9,1.76,7.535s-.051,5.444,1.376,7.657a5.176,5.176,0,0,1-6.709-1.055C26.613,133.021,28.138,130.379,27.937,131.895Z" transform="translate(-8.645 -38.136)"/><path class="p" d="M60.581,92.569a6.829,6.829,0,0,0-3.75-2.476,39.752,39.752,0,0,0-9.654-2,1.547,1.547,0,0,0-1.274.276,1.019,1.019,0,0,0-.053,1.208,2.341,2.341,0,0,0,1,.806,14.169,14.169,0,0,0,5.833,1.041l5.457.194a67.542,67.542,0,0,0-9.77.676c-1.369.2-2.918.561-3.568,1.781,1.343,1.058,3.259.826,4.946.54,3.091-.524,6.183-1.149,9.288-1.575a26.477,26.477,0,0,1,3.153-.431c.713,0,2.928,1.925,3.125,1.833.962-.445-.7.875.265.431-1.042-1-2.746-.456-4.059.141l-10.566,4.8a3.653,3.653,0,0,1-1.651.453,1.25,1.25,0,0,1-1.227-1l2.6-1.23,10.114-4.788" transform="translate(-14.559 -28.617)"/><path class="q" d="M23.171,120.451c-.875-5.025-.918-5.583-5.248-7.282A25.592,25.592,0,0,1,19.581,125.5a7.84,7.84,0,0,0,.08,3.021c.23.728,1.524,1.737,1.98,2.349,1.256,1.681,3.489,4.519,3.936,4.37,1.968-.656,14.587-.918,15.743-.874,9.155.344,6.608,1.263,15.7,2.362a7.793,7.793,0,0,1-.214-5.446,78.789,78.789,0,0,1-19.12-4.249,30.476,30.476,0,0,1-11.264,3.356c-.187-1.719-2.826-2.328-3.107-4.035C23.212,125.713,23.281,121.085,23.171,120.451Z" transform="translate(-5.824 -36.772)"/><path class="r" d="M12.026,86.009,7.361,88.485,0,84.552,21.283,116.16l4.447-2.33,3.206-2.185,22.3-11.654L25.291,69.258Z" transform="translate(0 -22.504)"/><path class="b" d="M32.342,111.173l-16.472-21.7L32.724,71.4,52.24,98.5Z" transform="translate(-5.157 -23.199)"/><path class="a" d="M11.928,94.452l16.472,21.7-6.576,3.058L.995,90.082Z" transform="translate(-0.323 -29.27)"/><path class="q" d="M39.71,126.3c-5.262-2.981-7.213-7.308-13.017-9.011-.9-.265-2.056-.341-2.5.628a1.825,1.825,0,0,0,.711,2.213,75.971,75.971,0,0,1,6.38,4.588c2.76,2.181,6.989,5.322,6,8.7l16.186,5.788c-1.037-1.3-.9-3.143-.808-4.8s-.026-3.576-1.336-4.6a5.8,5.8,0,0,0-2.826-.9A24.8,24.8,0,0,1,39.71,126.3Z" transform="translate(-7.815 -38.055)"/><path class="q" d="M62.2,91.781c2.911,1.17,4.9,2.2,5.248,5.316-2.988,1.093-7.548,1.124-10.759,3.067a2.463,2.463,0,0,0-1.13,1.121c-.36.96.458,1.592,1.466,1.784a6.1,6.1,0,0,0,3.1-.117,37.648,37.648,0,0,1,6.171-1.594,5.136,5.136,0,0,1,3.872.437,9.59,9.59,0,0,1,1.509,1.49,6.572,6.572,0,0,0,2.405,1.748c1.279.536,8.292,10.186,9.621,11.8.944,1.147,2.47-5.326,3.28-5.9-1.144-.99-8.792-10.049-9.84-11.142-2.8-2.927-4.9-4.722-6.892-8.249a4.94,4.94,0,0,0-1.62-1.994,4.957,4.957,0,0,0-2.262-.46c-6.494-.336-9.745-1.861-15.83-4.154-2.812-1.06.342,3.7,3.078,4.369A66.237,66.237,0,0,1,62.2,91.781Z" transform="translate(-16.064 -27.548)"/><path class="g" d="M89.664,92.666c10.342,10.5,20.652,17.371,27.769,23.487,3.178-14.912,5.218-27.355,5.529-42.6.1-4.84.063-10.016,2.749-14.044s9.317-5.739,12.3-1.926c1.906,2.436,1.535,5.884,1.068,8.94q-1.336,8.757-2.672,17.514c-2.125,13.93-4.269,27.935-8.657,41.326a6.182,6.182,0,0,1-2.162,3.515,5.676,5.676,0,0,1-2.244.689c-4.869.712-7.642-1.094-12.25-2.817-10.3-3.852-12.6-6.879-18.8-15.949-3.387-4.948-10.3-8.48-11.042-11.361C82.007,99.176,86.993,93.231,89.664,92.666Z" transform="translate(-26.399 -18.019)"/><path class="p" d="M141.861,61.23c-1.514-3.127-3.629-4.357-5.567-7.242a14.191,14.191,0,0,0-3.159-3.306c-2.452-1.741-5.66-1.112-8.648-.773,3.186-2.912,7.278-10.624,9.329-14.42,1.165,2.913,3.358,5.145,5.031,7.013,2.708,3.022,6.312,5.068,9.847,7.061a8.569,8.569,0,0,0-4.838,4.884A46.618,46.618,0,0,0,141.861,61.23Z" transform="translate(-40.45 -11.531)"/><path class="r" d="M268.617,112c-3.061,0-21.866-10.488-21.866-10.488l-12.463,22.5,16.837,11.58Z" transform="translate(-76.128 -32.985)"/><path class="s" d="M342.814,485.978c4.913-4.875,25.565-17.222,25.565-17.222s9.6,9.406,14.389,16.629q-12.6,8.513-25.21,17.026c-14.124,9.538-17.377,11.923-32.508,21.67-2.578-3.138-.039-13.8,10.224-24.894C337.542,496.736,340.444,488.33,342.814,485.978Z" transform="translate(-105.316 -152.314)"/><path class="t" d="M284.075,253.87c-2.8-6.876-1.319-14.659.2-21.927l7.158-34.209c2.739-13.092,5.491-26.536,3.4-39.748s-10.1-26.347-22.788-30.623c-5.026,6.744-10.238,13.958-10.99,22.332-.354,3.944.316,7.9.556,11.852.589,9.763-1.466,19.469-3.509,29.034q-4.251,19.906-8.5,39.813c-1.023,4.793-2.053,9.678-1.578,14.554.513,5.264,2.265,13.091,4.466,17.9,6.323,13.814,10.684,25.176,18.8,38.017,5.2,8.225,10.8,21.6,16.181,29.714,10.557,15.933,25.729,27.8,31.924,45.882,5.176-5.582,24.927-17.042,24.927-17.042A63.82,63.82,0,0,0,333.4,335c-4.686-6.3-12.53-10.577-16.185-17.526-2.459-4.675-2.172-9.272-2.424-14.547A46.687,46.687,0,0,0,301.2,272.369C295.187,266.39,287.274,261.722,284.075,253.87Z" transform="translate(-80.552 -41.385)"/><path class="u" d="M322.235,297.759c.93,5.681-2.595,22.223-2.186,27.966.28,3.936.853,16.257,1.749,20.1,3.8,16.328,1.635,28.448-7,42.823-11.37,0-19.678.874-31.049-.437,9.428-31.2-2.576-94.309-10.058-132.84-5.685-29.277,1.641-48.73-4.578-92.628-.451-1.1,14.636-14.649,11.082-13.184-5.067,2.088-7.274,5.647-11.753,8.8-1.968-4.807-11.808-19.663-11.808-19.663l14.869-23.6s6.336,1.812,9.839,3.28c20.334,8.521,26.914,21.669,29.519,40.417,6.646,47.834-2.417,80.742-.875,93.076C313.052,276.348,318.3,273.726,322.235,297.759Z" transform="translate(-83.39 -37.401)"/><path class="q" d="M109.405,45.163c3.361-.264,8.866-1.24,10.972-3.872A30.3,30.3,0,0,0,126.256,28c.682-4.5-3.091-9.081-6.478-12.12-2.485-2.229-5.807-3.226-9.014-4.159a6.68,6.68,0,0,0-4.81,2.332c-1.049,1.241-3.56,4.136-3.678,5.756-.62,8.5-5.57,12.985-5.2,14.393,2.313,2.428,2.109,1.885,4.424,4.312C103.029,40.114,103.514,45.623,109.405,45.163Z" transform="translate(-31.538 -3.807)"/><path class="r" d="M100.433,23.145c18.565-2.938,14.234,17.932,26.92,7.571,5.724-14.065-3.652-19.874-11.294-21.179a12.733,12.733,0,0,0-6.188,0,14.427,14.427,0,0,0-5.57,3.249C102.161,15.009,100.743,20.363,100.433,23.145Z" transform="translate(-32.634 -2.971)"/><g transform="translate(71.311 17.637)"><path class="r" d="M110.511,88.908a.464.464,0,0,1-.182-.89c.113-.05.152-.384.02-.86l-1.593-5.717a6.756,6.756,0,0,1-.358-2.458,6.291,6.291,0,0,1,1.3-2.9c.388-.555.793-1.11,1.2-1.669,2.075-2.838,4.219-5.773,4.173-9.139a15.6,15.6,0,0,0-1.583-5.691,16,16,0,0,1-1.65-6.2,15.882,15.882,0,0,1,1.613-5.925,30.922,30.922,0,0,0,1.112-2.948c2.026-6.79-2.006-14.964-8.628-17.494a.464.464,0,0,1,.331-.866,15.726,15.726,0,0,1,9.186,18.625,31.13,31.13,0,0,1-1.144,3.039,14.977,14.977,0,0,0-1.54,5.575,15.1,15.1,0,0,0,1.579,5.836A16.528,16.528,0,0,1,116,65.265c.051,3.675-2.186,6.737-4.351,9.7-.4.554-.806,1.1-1.188,1.652a5.523,5.523,0,0,0-1.134,2.456,5.953,5.953,0,0,0,.328,2.119l1.593,5.717c.269.965.064,1.7-.55,1.961A.436.436,0,0,1,110.511,88.908Z" transform="translate(-105.635 -26.127)"/></g><path class="r" d="M180.551,17.605a13.816,13.816,0,0,1-10.127-4.53,13.308,13.308,0,0,0-3.1-3.088c-3.348-1.859-7.178,1.043-10.556,2.844-8.627,4.6-20.238,2.289-25.881-5.181,1.5-5.815,8.8-9.316,14.277-6.85,4.136,1.861,6.924,6.355,11.369,7.258,6.061,1.233,11.4-4.8,17.586-4.96,8.444-.214,14.488,10.351,22.9,9.563,1.935-.18,3.768-.978,5.7-1.194a9.925,9.925,0,0,1,10.331,7.009c3.289-1.56,16.564-4.336,16.564-4.336s.089,7.043-.465,8.812c-1.2,3.85-2.34,3.977-.615,7.624-2.735,1.906-6.357-.744-8.271-3.472s-4.087-6.118-7.42-6.021c-1.914.056-3.625,1.337-5.538,1.423-3.787.169-6.1-4.073-9.456-5.839C192.642,13.926,186.432,17.614,180.551,17.605Z" transform="translate(-42.528 0)"/><g transform="translate(170.814 19.035)"><path class="r" d="M265.534,43.369c-2.578-.309-5.471-.657-8.513-5.3a12.392,12.392,0,0,1-1.35-3.747,9.866,9.866,0,0,0-1.555-3.939,4.194,4.194,0,0,1-.438-.762c-.07-.139-.17-.341-.251-.482a.448.448,0,0,1-.12-.03.437.437,0,0,1-.24-.57.52.52,0,0,1,.463-.346c.4-.008.6.38.931,1.037a4.407,4.407,0,0,0,.321.583,10.424,10.424,0,0,1,1.739,4.3,11.62,11.62,0,0,0,1.233,3.477c2.818,4.3,5.381,4.606,7.861,4.9Z" transform="translate(-253.033 -28.197)"/></g><g transform="translate(79.402 12.29)"><path class="r" d="M125.1,71.366a.458.458,0,0,1-.208-.05.464.464,0,0,1-.208-.622c1.707-3.4,3.4-7.312,1.848-10.631a12.582,12.582,0,0,0-1.135-1.836,11.281,11.281,0,0,1-1.379-2.361c-.924-2.387-.2-4.862.509-7.256a14.673,14.673,0,0,0,.9-5.48,13.075,13.075,0,0,0-2.372-5.464c-2.627-4.083-3.18-7.6-3.764-11.327a46.538,46.538,0,0,0-1.643-7.528.464.464,0,0,1,.884-.284A47.236,47.236,0,0,1,120.2,26.2c.594,3.785,1.107,7.052,3.628,10.97a13.828,13.828,0,0,1,2.516,5.87,15.339,15.339,0,0,1-.93,5.838c-.691,2.348-1.344,4.566-.533,6.659a10.469,10.469,0,0,0,1.273,2.164,13.281,13.281,0,0,1,1.215,1.976c1.724,3.695-.055,7.841-1.859,11.438A.47.47,0,0,1,125.1,71.366Z" transform="translate(-117.621 -18.205)"/></g><path class="v" d="M104.952,32.787a4.934,4.934,0,0,1-6.236,2.235" transform="translate(-32.076 -10.653)"/><path class="u" d="M173.718,8.327l5.429,2.967-2.97,5.424-5.428-2.967Z" transform="translate(-55.482 -2.706)"/><path class="u" d="M128.226,4.407l5.429,2.967L130.686,12.8l-5.429-2.967Z" transform="translate(-40.7 -1.432)"/><path class="u" d="M222.258,15.111l5.428,2.967L224.717,23.5l-5.429-2.967Z" transform="translate(-71.254 -4.91)"/><path class="u" d="M250.026,22.922l5.429,2.967-2.97,5.425-5.428-2.967Z" transform="translate(-80.277 -7.448)"/><path class="w" d="M144.292,51.2c2.078-1.056.17-3.128,18.184.235,28.993,5.412,28.536,16.42,35.859,21.849,6.778,5.025,7,5.739,11.589,7.428,8.309,3.059,9.84,4.152,17.93,6.991-9.383,16.939-7.977,19.195-12.18,38.094a197.646,197.646,0,0,1-20.659-16.265c-4.832-4.156-.19-1.327-18.836-11.489-6.613-3.6-27.88-18.214-32.07-24.471C137.744,64.071,137.105,54.854,144.292,51.2Z" transform="translate(-45.204 -16.114)"/><path class="x" d="M280.366,518.253c6.8-1.3,30.832,0,30.832,0s2.7,13.16,2.632,21.825l-30.428.041c-17.046.022-21.078.184-39.077-.184-.383-4.043,7.687-11.467,22.4-14.935C269.975,524.229,277.083,518.88,280.366,518.253Z" transform="translate(-79.385 -168.209)"/><rect class="l" width="2.758" height="2.757" transform="matrix(-0.877, -0.48, 0.481, -0.877, 133.58, 81.91)"/><rect class="l" width="2.758" height="2.757" transform="matrix(-0.877, -0.48, 0.481, -0.877, 147.764, 89.183)"/><path class="y" d="M55.921,118.342c7.842,3.095,14.884,6.377,22.726,9.471a29.344,29.344,0,0,0,8.407,1.9,31.855,31.855,0,0,0,14.061-1.9c2.218-3.306,13.669-17.663,19.445-36.641,1.588-5.219,9.333-18.952,5.165-30.183-3.238-8.725-9.39-6.569-12.051-4.223-2.462,2.171-5.124,18.519-6.887,24.24-5.008,16.265-12.325,30.321-13.46,31.434-1.849-.184-7.985-1.683-9.475-1.834l-24.42-2.491Q57.676,113.226,55.921,118.342Z" transform="translate(-18.171 -17.77)"/><path class="l" d="M312.031,182.4a.329.329,0,0,0-.153-.46h0a.33.33,0,0,0-.461.153h0a.329.329,0,0,0,.153.46h0a.331.331,0,0,0,.461-.153Zm9.134-32.5a.343.343,0,1,0-.2-.656h0a.33.33,0,0,0-.229.428c-.023.254.232.275.428.228Zm-8.065,3.033a.343.343,0,1,0-.2-.656h0a.33.33,0,0,0-.229.428h0c-.012.127.232.276.428.228Zm7.093,15.373a.382.382,0,1,0-.762-.064c.047.2.165.334.292.345C320.034,168.674,320.172,168.558,320.193,168.3Zm-8.677-.346a.382.382,0,1,0-.762-.064c.047.2.165.334.292.345.311.09.518-.084.47-.28Zm-2.563-30.408a.36.36,0,1,0-.465-.551h0a.386.386,0,0,0-.042.508h0A.384.384,0,0,0,308.952,137.551Zm-6.382,5.861a.36.36,0,1,0-.508-.043h0a.386.386,0,0,0,.508.043ZM319.615,176.7c.011-.127-.1-.391-.292-.345-.128-.011-.392.1-.345.291-.011.127.1.391.292.345h0c.186.079.323-.036.345-.291Zm-7.664-.963c.011-.127-.1-.391-.292-.345a.319.319,0,1,0-.053.636h0c.2-.048.334-.164.345-.291Zm-.737-30.063c.138-.117.218-.3.1-.44a.376.376,0,0,0-.44-.1h0c-.138.117-.218.3-.1.44h0c.117.137.3.217.44.1Zm-6.091,4.671c.138-.117.218-.3.1-.44a.376.376,0,0,0-.44-.1h0c-.138.117-.218.3-.1.44h0c.117.136.3.216.44.1Zm9.7,11.752a.343.343,0,1,0-.428-.228.33.33,0,0,0,.428.228Zm12.287,11.457a.343.343,0,1,0-.428-.228.326.326,0,0,0,.428.228Zm-8.579,2.286a.343.343,0,1,0-.428-.228.33.33,0,0,0,.428.228Zm-8.589,2.414a.343.343,0,1,0-.428-.228A.682.682,0,0,0,309.947,178.254Zm-5.492-34.427a.344.344,0,1,0-.461.153c.117.138.382.033.461-.153Zm2.119,46.361a.338.338,0,0,0,.413-.349m8.826-30.346a.36.36,0,1,0-.508-.043h0a.387.387,0,0,0,.508.043Zm4.808,3.73a.36.36,0,1,0-.465-.551.329.329,0,0,0-.043.508.385.385,0,0,0,.508.043Zm-7.22,5.151a.387.387,0,0,0,.043-.508.33.33,0,0,0-.508-.043.369.369,0,1,0,.465.551Zm1.632,15.616a.33.33,0,0,0,.229-.428h0c-.047-.2-.233-.275-.487-.3-.2.047-.275.232-.3.487a.544.544,0,0,0,.556.238Zm-3.268-1.489a.285.285,0,1,0-.37-.159h0c.116.137.3.217.37.159Z" transform="translate(-98.126 -44.491)"/></g></g><g transform="translate(290.366 518.522) rotate(180)"><g transform="translate(0 0)"><path class="q" d="M20.322,29.759A107.332,107.332,0,0,1,52.177,0c1.711,10.311-4.982,20.183-12.7,27.235s-20.06,15.3-22.86,20.8C12.816,55.516,9.1,65.328,4.085,73c-1.35,2.066-4.949,3.209-3.894.978,2.2-4.64,4.506-7.691,5.985-12.915-.561.653-1.725.077-1.98-.745a9.058,9.058,0,0,1-.177-3.046c.437-4.309-2.335-6.853-.84-10.92,1.3-3.532,5.4-4.866,8.774-6.533C16.029,37.811,17.7,33.475,20.322,29.759Z" transform="translate(0 325.117)"/><path class="r" d="M1.139,24A67.178,67.178,0,0,0,5.416,35.261l2.429,5.4a4.3,4.3,0,0,0,1.143,1.724,3.964,3.964,0,0,0,1.694.641,26.479,26.479,0,0,0,19.633-3.9A60.272,60.272,0,0,1,33.179,7.361,94.129,94.129,0,0,0,1.061,0C.126,7.992-.8,16.192,1.139,24Z" transform="translate(67.786 218.719)"/><path class="m" d="M31.572,19.1c6.129,1.173,25.883.663,25.883.663S62.71,7.9,62.648.086L35.227.049C19.865.028,16.231-.116.012.214-.333,3.859,6.939,10.554,20.2,13.681,23.128,14.372,28.614,18.538,31.572,19.1Z" transform="translate(59.826)"/><path class="z" d="M22.238,150.086c-2.672,11.54-5.478,23.385-12.365,33.184a4.69,4.69,0,0,1-2.882,2.281c-2.457.353-3.8-2.631-4.223-4.982C-8.261,119.008,17.029,62.991,20.109.595,28.133.1,38.226-.151,46.25.1,44.063,13.024,49.706,16.341,49.1,29.424c-.554,11.92-5.027,16.185-5.953,28.084-.981,12.64,3.383,16.459.517,28.83C40.245,101.1,25.656,135.327,22.238,150.086Z" transform="translate(71.285 18.59)"/><path class="q" d="M38.261,16.562C29.846,8.654,20.081,5.87,10.135,0,5.023.175,5.7.545,3.578,2.07.933,3.968,1.426,7.364.921,10.581c-.87,5.541-1.7,11.407.4,16.606C2.484,20.608,5.254,12.344,9.468,7.158c9.876,8.66,20.419,18.66,31.351,25.944q.226-7.78.451-15.56C40.568,17.961,38.964,16.143,38.261,16.562Z" transform="translate(97.134 227.124)"/><path class="r" d="M31.572,19.1c6.129,1.173,25.883.663,25.883.663S62.71,7.9,62.648.086L35.227.049C19.865.028,16.231-.116.012.214-.333,3.859,6.939,10.554,20.2,13.681,23.128,14.372,28.614,18.538,31.572,19.1Z" transform="translate(100.718)"/><path class="i" d="M17.046,18.936C12.969,22.957,9.573,29.1,6.99,34.212,2.46,43.168-2.179,53.39,1.109,62.873a19.1,19.1,0,0,0,12.4,11.852c-.425-8.833,2.605-17.43,5.692-25.719,4.386-11.775,8.362-20.96,13.153-32.575.605-1.468,1.6-4.748,1.173-5.548C31.676,7.4,29.881,4.762,26.821,4.1s-6.6-1.354-8.1-4.1c-4.59,5.131-7.008,7.8-5.727,14.563C15.449,16.934,16.252,17.313,17.046,18.936Z" transform="translate(114.022 239.252)"/><path class="aa" d="M57.924,60.452C53.89,51.777,44.865,42.807,40,34.569c-8.16-13.824-8.468-16.88-10.862-32.752C19.417,2.5,8.489,3.961,0,0A303.955,303.955,0,0,0,16.3,52.49c5.775,14.346,15.9,28.39,30.85,32.374,5.316,1.417,12.456.49,14.152-4.744C62.222,77.293,59.177,63.147,57.924,60.452Z" transform="translate(67.97 240.404)"/><path class="p" d="M0,2.522C2.329-.713,9.188-.584,10.612,1.486c-1.072,7.2.135,12.919,2.733,19.724A42.463,42.463,0,0,0,.294,18.093,22.787,22.787,0,0,0,0,2.522Z" transform="translate(115.207 321.601)"/><path class="q" d="M3.589,21.082c.553-2-1.928-5.3-2.68-7.246C-.814,9.391-.228,3.459,3.88,1.038,7.712-1.22,12.655.56,16.373,3A24.631,24.631,0,0,1,24.3,10.878a14.2,14.2,0,0,1,1.715,10.834c-.553,1.97-2.387,4.083-4.291,3.329.1.485-1.6.639-1.5,1.123-3.794.677-6.064-.02-9.08-2.419-1.85-1.47-2.514-2.307-4.767-1.592-1.054.335-2.6,1.042-2.925-.016A1.971,1.971,0,0,1,3.589,21.082Z" transform="translate(110.252 338.069)"/><path class="u" d="M21.284,59.2c-3.8,3.4-6.6,3.484-11.67,3.974-.153-5.157-3.665-9.49-6.378-13.879s-4.69-10.21-1.847-14.515c1.557-2.358,4.375-3.885,5.244-6.574.742-2.3-.161-4.758-.368-7.162A24.966,24.966,0,0,1,15.254,0c.4,4.16,5.487,6.07,9.667,6s8.663-1.1,12.333.9c3.886,2.114-.617,5.914,2.493,9.06,2.51,2.538-2.364,10.641-10.156,14.154-3.823,1.724-4.19,10.225-3.231,14.308C27.886,50.92,24.207,56.58,21.284,59.2Z" transform="translate(118.541 301.574)"/><path class="ab" d="M43.447,162.783C42.4,165.89,41.319,172.95,41.673,176.2c.223,2.047,1.171,3.958,1.559,5.982.8,4.184-.827,8.407-2.43,12.374L30.278,220.614a159.353,159.353,0,0,1-30.215-4.9C-1.5,138.411,26.643,68.235,64.694.1c6.283-.478,19.445,1,25.728.521.8-.061,5.226,13.3.566,28.261C89.393,34,81.46,44.469,79.669,49.531c-2.475,6.99-4.324,20.372-5.094,27.718-1.892,18.017-14.138,20.4-18.061,38.111C54.767,123.25,46.943,152.372,43.447,162.783Z" transform="translate(67.538 18.89)"/><g transform="translate(116.505 301.035)"><path class="u" d="M10.8,0a.43.43,0,0,0-.221.06,15.92,15.92,0,0,0-4.408,3.8A12.326,12.326,0,0,0,3.335,10.6a19.68,19.68,0,0,0,.97,6.481,20.912,20.912,0,0,1,.971,5.714c-.06,2.863-1.527,6.411-2.946,9.843-.545,1.318-1.06,2.564-1.5,3.772C-.931,41.262.341,44.267,2.483,48.3a35.148,35.148,0,0,0,3.439,4.884c2.236,2.841,4.549,5.78,4.852,8.676a.434.434,0,0,0,.484.392.439.439,0,0,0,.392-.484c-.329-3.15-2.722-6.189-5.035-9.129a34.536,34.536,0,0,1-3.354-4.753c-2.372-4.46-3.118-7-1.6-11.174.432-1.191.943-2.428,1.486-3.737,1.45-3.506,2.95-7.134,3.013-10.161a21.549,21.549,0,0,0-1-5.958,18.76,18.76,0,0,1-.943-6.19A11.587,11.587,0,0,1,6.856,4.41,15.065,15.065,0,0,1,11.021.817a.441.441,0,0,0,.159-.6A.444.444,0,0,0,10.8,0Z" transform="translate(0 0)"/></g><g transform="translate(116.864 357.589)"><path class="u" d="M2.519,0a.415.415,0,0,0-.094.01A3.568,3.568,0,0,0,.007,3.6.424.424,0,0,0,.48,4a.441.441,0,0,0,.405-.472c-.059-.763.5-2.394,1.729-2.661A.44.44,0,0,0,2.519,0Z" transform="translate(0 0)"/></g><path class="q" d="M9.451,7.97a35.709,35.709,0,0,0-2.43,2.709,20.1,20.1,0,0,1-3.914,2.975,5.466,5.466,0,0,1-1.863.882,1.165,1.165,0,0,1-1-.184c-.588-.53-.01-1.476.56-2.026Q3.218,10,5.63,7.671A15.612,15.612,0,0,0,8.367,4.508c.51-.865.849-1.819,1.339-2.7A3.7,3.7,0,0,1,11.251.186a1.746,1.746,0,0,1,2.08.361c-.977,1.7-.549,4.008-1.727,5.579A13.2,13.2,0,0,1,9.451,7.97Z" transform="translate(90.104 232.044)"/><path class="ac" d="M77.5,17.153C62.99,20.005,39.908,23.49,34.316,25.02c-2.156.59-4.055,1.11-5.764,1.54-.62.981-6.469,4.221-6.97,4.685-3.09,3.173-5.524,4.817-8.514,8.036C9.333,36.668,5.973,31.815,0,25.842c3.085-3.066,10.927-4.235,14.31-6.969a14.122,14.122,0,0,1,5.228-3.014,33.882,33.882,0,0,1,3.347-1.6c4.358-1.8,32.292-10.283,37.64-11.67S74.776-1.38,81.67.911c1.469.489,4.154,2.1,4.247,3.347C86.183,7.817,83.813,15.912,77.5,17.153Z" transform="translate(33.421 307.367)"/><path class="l" d="M1.448,23.617a.176.176,0,0,1-.083.27.176.176,0,0,1-.27-.083.176.176,0,0,1,.083-.27h0c.119-.062.18.056.27.083ZM.979,43.566A.2.2,0,0,1,1.1,43.8h0a.2.2,0,0,1-.235.124h0a.2.2,0,0,1-.124-.235c-.034-.207.174-.242.235-.124ZM.557,33.486A.346.346,0,0,1,.8,33.66a.347.347,0,0,1-.173.242.346.346,0,0,1-.242-.174C.349,33.521.467,33.458.557,33.486Zm24.591-8.14a.358.358,0,1,1,.075.713h0a.344.344,0,0,1-.394-.319.282.282,0,0,1,.319-.394Zm-8.981.369a.358.358,0,1,1-.319.394h0A.342.342,0,0,1,16.167,25.715Zm-9.009.46a.344.344,0,0,1,.394.319h0a.344.344,0,0,1-.319.394h0a.358.358,0,1,1-.075-.713ZM16.714,8.056a.6.6,0,0,1-.167.539.6.6,0,0,1-.539-.167.422.422,0,0,1,.139-.45c.263-.214.443-.158.566.078ZM8.549,11.83a.6.6,0,0,1-.167.539.6.6,0,0,1-.539-.167.422.422,0,0,1,.139-.45.453.453,0,0,1,.566.078Zm9.9,30.353a.376.376,0,1,1-.223.717h0a.4.4,0,0,1-.247-.47h0A.4.4,0,0,1,18.451,42.183ZM9.934,39.149a.376.376,0,1,1-.47.247h0a.4.4,0,0,1,.47-.247Zm-8.429-3a.4.4,0,0,1,.247.47h0a.4.4,0,0,1-.47.247h0a.4.4,0,0,1-.247-.47.345.345,0,0,1,.47-.247ZM12.738.224c.062.118.069.416-.139.45-.118.062-.416.069-.45-.139-.062-.118-.069-.416.139-.45h0C12.434-.067,12.614-.011,12.738.224Zm4.575,33.233c.179.055.332.2.276.381s-.174.242-.381.276h0c-.179-.055-.332-.2-.276-.381h0c.056-.179.2-.331.381-.276ZM9.562,31.45c.179.055.332.2.276.381s-.173.242-.381.276h0c-.179-.055-.332-.2-.276-.381h0c.056-.18.2-.332.381-.276Zm-7.78-1.918c.179.055.332.2.276.381h0c-.055.179-.173.242-.381.276h0c-.179-.055-.332-.2-.276-.381h0c.084-.27.2-.331.381-.276ZM14.089,16.206a.358.358,0,1,1-.319.394c-.034-.208.139-.45.319-.394ZM6.165,17.3a.413.413,0,0,1,.421.23h0a.358.358,0,0,1-.713.075c-.062-.119.084-.271.291-.305Zm.849,28.731c.152.147.214.263.069.416h0c-.147.152-.353.187-.416.069h0a.342.342,0,0,1-.04-.5.917.917,0,0,1,.387.02ZM.6,41.283a.342.342,0,0,1,.04.5.343.343,0,0,1-.5.04c-.152-.147-.187-.353-.069-.416.173-.24.381-.275.533-.129ZM21.221.192a.344.344,0,0,1,.394.319A.358.358,0,0,1,20.9.586a.343.343,0,0,1,.319-.394ZM12.079,1.4a.344.344,0,0,1,.394.319.358.358,0,0,1-.713.075c-.062-.117.111-.359.319-.394Zm-.5,36.586a.358.358,0,1,1-.5.04c.054-.179.352-.186.5-.04ZM4.163,32.339a.358.358,0,1,1-.464.544.342.342,0,0,1-.04-.5c.117-.062.352-.187.5-.04ZM16.1,18.306a.376.376,0,1,1-.47.247h0a.4.4,0,0,1,.47-.247Zm-8.919-2.37a.4.4,0,0,1,.247.47h0a.4.4,0,0,1-.47.247h0a.4.4,0,0,1-.247-.47.343.343,0,0,1,.47-.247ZM19.2,12.764a.376.376,0,1,1-.223.717.343.343,0,0,1-.247-.47.4.4,0,0,1,.47-.247Zm-9.032-2.01a.4.4,0,0,1,.247.47.343.343,0,0,1-.47.247.626.626,0,0,1-.338-.5.63.63,0,0,1,.561-.219Zm-2.7,17.288a.515.515,0,0,1,.13.533.515.515,0,0,1-.533.13.515.515,0,0,1-.13-.533h0c.055-.179.353-.184.533-.13Z" transform="translate(69.38 186.083)"/><g transform="translate(110.44 313.216)"><path class="u" d="M.44,0A.44.44,0,0,0,.112.733,29.485,29.485,0,0,1,5.728,9.32a16.339,16.339,0,0,1,.9,9.98A27.193,27.193,0,0,1,5.6,22.306,18.946,18.946,0,0,0,4.26,26.891c-.583,4.991,2.72,9.517,5.662,12.9l.78.893c2.849,3.249,5.8,6.609,6.475,10.756a.433.433,0,0,0,.505.362.439.439,0,0,0,.363-.5c-.721-4.395-3.751-7.851-6.682-11.193l-.778-.89C7.762,35.967,4.59,31.642,5.134,26.992a18.116,18.116,0,0,1,1.284-4.371,28.1,28.1,0,0,0,1.06-3.1A17.214,17.214,0,0,0,6.545,8.993,30.319,30.319,0,0,0,.767.146.443.443,0,0,0,.44,0Z" transform="translate(0 0)"/></g></g></g><g transform="translate(493.561 248.495)"><path class="ad" d="M224.261,264.337h-5.576L185.33,16.445h12.739v-.714Z" transform="translate(-60.22 -5.112)"/><path class="ae" d="M38.931,16.547,5.576,264.44H0L26.155,16.046v.5Z" transform="translate(0 -5.214)"/><rect class="af" width="111.697" height="11.331" transform="translate(26.157)"/></g></g></svg>