<svg id="fogg" xmlns="http://www.w3.org/2000/svg" width="158.739" height="201.87"><defs><style>.a,.b{fill:none;stroke-linecap:round;stroke-miterlimit:10;stroke-width:3.449px}.a{stroke:#999}.b{stroke:#bdbdbd}.c{fill:#bf360c}.e{fill:#d84315}.g{fill:#424242}.i{fill:#bdbdbd}.l{fill:#f9a825}.m{fill:#5c6bc0}.n{fill:#fbc02d}.r{fill:#9e9e9e}.u{fill:#eee}.w{fill:#e0e0e0}</style></defs><path class="a" transform="rotate(180 68.798 72.877)" d="M14.692 0L0 31.125"/><path class="a" transform="rotate(180 69.138 72.703)" d="M15.095 0L0 23.884"/><path class="b" transform="rotate(180 72.249 74.687)" d="M17.802 0L0 24.535"/><path class="a" transform="rotate(180 55.302 69.765)" d="M0 0l2.012 23.079"/><path class="c" d="M23.893 5.07C20.985 4.216 10.567 0 10.567 0L5.288 1.087l-2.4 2.222C1.107 6.253 1.662 7.87 0 9.762v.06a13.166 13.166 0 00.123 1.36c8.093 12.179 23.77-6.112 23.77-6.112z" transform="rotate(180 77.325 62.692)"/><path d="M0 3.606S8.332 1.825 11.991 0l3.718 4.181S11.926 8.821 0 3.606z" transform="rotate(180 60.291 58.835)" style="fill:#99220e"/><path class="b" transform="rotate(180 64.284 70.426)" d="M12.38 0L0 17.766"/><path class="b" transform="rotate(180 63.486 70.426)" d="M10.785 0L0 27.039"/><path class="b" transform="rotate(180 59.213 70.426)" d="M2.239 0L0 25.839"/><path class="a" transform="rotate(180 55.302 69.765)" d="M0 0l5.42 26.714"/><path class="a" transform="rotate(180 56.364 69.765)" d="M2.125 0L0 25.718"/><path class="b" transform="rotate(180 76.121 74.687)" d="M25.546 0L0 21.583"/><path class="b" transform="rotate(180 74.928 74.687)" d="M23.16 0L0 25.075"/><path class="a" transform="rotate(180 65.846 72.877)" d="M8.788 0L0 27.538"/><path class="e" d="M3.434 16.5C2.892 8.248 5.311 4.028 5.311 4.028L2.431 0C.3 2.941-.111 9.508.023 12.7v.06c.023.527.992 2.54 1.048 2.913 8.094 12.182 2.363.827 2.363.827z" transform="rotate(180 77.337 64.163)"/><path class="e" d="M43.41 4.727c-.752 2.663-1.919 6.367-3.808 6.008C32.848 9.45 23 0 23 0S5.073 12.559 0 13.541c5.731 4.373 17.634 8.551 23.017 9.649s11.42-1.037 17.705-6.972S43.41 4.727 43.41 4.727z" transform="rotate(180 74.142 59.107)"/><path class="c" d="M20.414 4.727C14.206 4.619 0 0 0 0s8.384 11.2 17.744 12.608A3.157 3.157 0 0021.335 10a8.054 8.054 0 00-.921-5.273z" transform="rotate(180 62.644 59.107)"/><path d="M29.36 7.17L27.591 0C27.2.236 14.68 10.372 6.867 12.569c-1.356.382-4.359.354-5.569-.868A4.284 4.284 0 010 9.821a13.166 13.166 0 00.123 1.36c.4 2.631.51 5.159 6.242 9.529s8.918 2.6 15.2-3.332S29.36 7.17 29.36 7.17z" transform="rotate(180 77.324 62.692)" style="fill:#e64a19"/><path class="g" d="M2.253 7.085l-1.681-1a1.091 1.091 0 01-.438-1.439A6.106 6.106 0 00.9 1.748C.924.886 2.242 0 2.242 0a3.51 3.51 0 01.452 2.332c-.07 2.363.846 3.041.846 3.041z" transform="rotate(180 53.221 100.935)"/><path class="g" d="M0 2.667L.3.887S.483-.181 1.4.027a11.483 11.483 0 002.324.848c2.024.276 2.506 1.206 2.506 1.206a2.6 2.6 0 01-2.286.462c-2.032-.3-1.877.59-1.877.59z" transform="rotate(180 45.54 94.034)"/><path d="M16.5.488s-.69 12.137-4.16 12.93S0 7.372 0 7.372L4.4 0c2.059 3.367 5.615 8.674 6.566 9.211 0 0-.46-1.8 3.227-9.186z" transform="rotate(180 52.665 92.887)" style="fill:#283593"/><path class="i" d="M6.419 0a.264.264 0 00-.2.092L1.01 6.186l.131-.36a.263.263 0 00-.495-.179l-.63 1.728a.263.263 0 00.448.259L6.619.432a.262.262 0 00-.2-.432z" transform="rotate(180 58.293 75.563)"/><path class="c" d="M2.474 0a.264.264 0 00-.244.164L.019 5.614a.262.262 0 00.146.341.265.265 0 00.343-.145L2.719.361A.264.264 0 002.474 0z" transform="rotate(180 51.857 81.616)"/><path class="c" d="M14.556 0a.4.4 0 00-.346.132L.1 16.29a.392.392 0 00.039.555.4.4 0 00.557-.039L14.807.651A.393.393 0 0014.556 0z" transform="rotate(180 63.631 82.864)"/><path class="c" d="M9.538 0a.4.4 0 00-.353.228L.037 19.88a.392.392 0 00.193.522.4.4 0 00.525-.192L9.9.558A.394.394 0 009.538 0z" transform="rotate(180 61.701 82.681)"/><path d="M12.241 0s10.9 5.48 10.249 8.962-10.5 8.836-10.5 8.836-.875 9.141-4.155 13.493-5.452 5.472-6.97 4.22c-1.852-1.529-.286-3.536.627-9.443.438-2.829 1.094-4.353 1.094-8.053 0-1.324-.437-6.529 4.374-7.182 3.925-.532 10.234-1.655 11.109-2.308 0 0-1.841-.3-7.172-6.616z" transform="rotate(180 57.657 98.382)" style="fill:#3949ab"/><path d="M4.032 5.047A16.523 16.523 0 004.293.408C3.967-1.138 0 2.205 0 2.205l.149 3.254z" transform="rotate(180 55.814 81.119)" style="fill:#fad6b7"/><path class="g" d="M9.035 7.765S8.3 11.5 5.231 12.011a4.268 4.268 0 01-5.2-4.455 5.6 5.6 0 011.576-3.628 8.674 8.674 0 003.375-1.066C5.9 2.09 8.07 0 8.07 0s1.618.2 1.6 2.548l-2.136 1.8-.082 2.931a8.963 8.963 0 001.583.486z" transform="rotate(180 58.028 82.59)"/><path class="l" d="M4.929 6.512L.1 0s-.967 6.09 3.016 6.81z" transform="rotate(180 58.783 84.031)"/><path class="l" d="M3.865 11.789a7.016 7.016 0 01-1.548-3.16C2.012 7.495-.146 2.247.008 1.379A5.483 5.483 0 01.418 0l2.513 1.43s1.921 9.281.934 10.359z" transform="rotate(180 61.29 89.925)"/><path class="m" d="M.924 7.716A5.649 5.649 0 010 4.4V.159a2.6 2.6 0 011.8 0c.975.358 2.719 3.7 2.719 3.7L2.665 7.975z" transform="rotate(180 60.132 89.469)"/><path class="n" d="M2.975 14.623s1.336 1.851 2.725-2.949 3.541-9.14 2.771-9.651A24.861 24.861 0 00.442 0a14.763 14.763 0 00-.206 1.879 29.9 29.9 0 001.3 4.485A21.715 21.715 0 001.3 9.58H0s.561 3.629 2.975 5.043z" transform="rotate(180 59.67 90.401)"/><path d="M3.15 6.229c1.6 0 .147.019 1.162-1.73 0 0-2-.527-3.011-4.5H0s.348 6.23 3.15 6.23z" transform="rotate(180 59.67 85.611)" style="fill:#fdd835"/><path class="n" d="M0 10.46s1.048 6.913 4.657 6.913c2.624 0 5.15-3.257 5.425-9.214.227-4.923-.857-6.882-4.774-8.159L4.7 2.066s3.938.823 3.394 5.927c-.474 4.447-1.684 7.156-3.425 7.156-1.322 0-3.039-2.638-2.872-4.618A1.4 1.4 0 000 10.46z" transform="rotate(180 58.037 88.92)"/><path class="g" d="M.194 5.448s-.437-2.394 0-3.048 0-1.959 0-1.959L2.673 0s1.021 2.4.365 3.271S1.288 5.883.194 5.448z" transform="rotate(180 50.95 82.977)"/><path class="m" d="M1.173 9.141C.216 8.735-.8 7.617.954 5.006S7.167 0 8.261 0s3.718 3.309 5.249 8.1l-3.062.871S7.683 5.441 7.535 4.57c0 0-4.203 5.487-6.362 4.571z" transform="rotate(180 56.185 86.804)"/><path class="n" d="M.457 2.764L2.868.437A.394.394 0 002.558 0L0 2.144z" transform="rotate(180 54.52 89.005)"/><path d="M5.9 7.495S4.15 9.671 2.4 9.671s-.93-2.478-.651-4.246c.27-1.72.433-3.48-.442-4.025A2.4 2.4 0 000 .966 7.806 7.806 0 014.811.1a28.41 28.41 0 01-.875 5.876c-.354 1.493.656 1.737 1.964 1.519z" transform="rotate(180 54.177 93.448)" style="fill:#ffab00"/><path class="n" d="M.773 3.747L1.725.256A.431.431 0 001.19.021L0 3.423z" transform="rotate(180 53.844 88.92)"/><path class="c" d="M.4 0H.387A.394.394 0 000 .4l.475 23.328a.394.394 0 00.395.385h.008a.394.394 0 00.387-.4L.79.385A.394.394 0 00.4 0z" transform="rotate(180 55.724 81.575)"/><path class="c" d="M5.515 0a.394.394 0 00-.384.3L.01 22.183a.395.395 0 00.769.178L5.9.483a.393.393 0 00-.3-.472A.4.4 0 005.515 0z" transform="rotate(180 58.284 81.575)"/><path d="M12.5 0a.265.265 0 00-.186.076L.077 12.207a.262.262 0 000 .371.265.265 0 00.373 0L12.69.448A.262.262 0 0012.5 0z" transform="rotate(180 57.977 78.891)" style="fill:#ccc"/><path class="c" d="M5.074 0a.263.263 0 00-.212.106L.052 6.541a.261.261 0 00.054.367.264.264 0 00.369-.054L5.285.419A.263.263 0 005.074 0z" transform="rotate(180 51.857 82.108)"/><g><g><path class="r" d="M72.354 275.887l-2.691-7.521a12 12 0 01-.7-4.438v-.037a11.983 11.983 0 012.332 3.931l2.831 7.913z" transform="translate(-56.771 -217.243)"/><path class="i" d="M661.425 363.579l-5.246 7.649s7.779 1.139 14.25-1.082c0 0 8.741-4.923 11.01-7.624s-15.911-1.156-20.014 1.057z" transform="translate(-540.187 -297.257)"/><ellipse class="g" cx="4.294" cy="4.506" rx="4.294" ry="4.506" transform="rotate(-61.146 101.925 4.916)"/><ellipse cx="1.781" cy="1.961" rx="1.781" ry="1.961" transform="rotate(-61.146 102.119 .58)" style="fill:#212121"/><path class="i" d="M311.995 413.129l1.077.463a1.337 1.337 0 01.63 1.889l-6.567 11.564a.951.951 0 00.218 1.212l.019.015a.939.939 0 001.367-.287l7.8-12.944a3.824 3.824 0 011.584-1.451l2.385-1.173s-2.918-.639-8.513.712z" transform="translate(-252.738 -339.39)"/><path d="M45 394.65a120.385 120.385 0 01-21.626 13.093l-2.089 3.329s-15.825-.843-17.885-.925-3.4-2.412-3.4-2.412L21.288 387.6z" transform="translate(0 -319.082)" style="fill:#c6c6c6"/><path class="r" d="M116.655 416.161A134.767 134.767 0 0192.932 430.2l-2.089 3.329-6.023-.319c-1.014-.053.552-1.132 2.216-2.316 6.463-4.6 23.492-16.016 23.492-16.016a16.742 16.742 0 016.127 1.283z" transform="translate(-69.563 -341.543)"/><path class="r" d="M23.369 496.488l-2.089 3.329s-15.82-.842-17.88-.924-3.4-2.412-3.4-2.412l1.143-1.081s1.546 3.36 22.226 1.088z" transform="translate(0 -407.828)"/><path class="u" d="M104.6 188.117s-7.047 3.75-10.467 9.507a127.718 127.718 0 00-12.91 1.033c-1.931.329-4.868.735-7.318 2.808 0 0-5.821.138-6.48 2.228-.353 1.123 2.8 3.807 4.983 4.33.383 4.854 8.04 11.72 26.459 11.9 3.4.033 11.222-.331 15.056-.636 20.3-1.619 81.064-7.79 81.064-7.79s9.374-2.726 9.415-3.758-.872-6.55-.872-6.55l4.835-23.176-10.953-1.577-14.044 21.773s-17.556 1.363-25.417 2.289c0 0-14.571-1.205-16.627-1.288 0 0-6.274-5.319-12.047-7.722z" transform="translate(-55.487 -145.246)"/><path d="M797.916 388.494a1.321 1.321 0 01.173 0 .878.878 0 01-.173 0z" transform="translate(-656.869 -319.819)" style="fill:#cecece"/><path class="w" d="M235.607 352.8v.126c-.041 1.033-9.415 3.758-9.415 3.758s-58.691 5.961-79.979 7.7l-1.085.088c-3.834.305-11.66.67-15.056.636-13.025-.126-20.668-3.6-24.163-7.336a2.25 2.25 0 011.971-3.754c10.069 1.482 41.334 4.021 127.692-1.221z" transform="translate(-86.688 -290.439)"/><path class="r" d="M232.15 244.832a40.785 40.785 0 00-2.072 8.086 48.39 48.39 0 00-11.126.174c3.421-5.757 10.467-9.507 10.467-9.507z" transform="translate(-180.249 -200.527)"/><path class="w" d="M346.476 6.043L325.312 36.01l-16.791 15.768c-2.418-1.338-7.064-1.007-7.064-1.007-29.536-.255-24.677-3.371-24.677-3.371l45.43-42.124z" transform="translate(-227.609 -4.343)"/><path class="w" d="M706.534 283.148l18.436-12.29a21.159 21.159 0 018.305-1.735c5.049-.108 7.1-.025 7.1-.025l-7.674 9.927-12.521 3.429s-8.052.646-13.646.694z" transform="translate(-581.641 -221.505)"/><path class="r" d="M319.989 266.063l2.02 11.124a1.183 1.183 0 01-1.161 1.4H306.7l-.822-12.415a1.3 1.3 0 011.33-1.4l11.55.293a1.3 1.3 0 011.231.998z" transform="translate(-251.804 -217.964)"/><path class="r" d="M417.607 267.948l-2.411-3.154a1.605 1.605 0 01.183-2.15c5.772 2.4 12.047 7.722 12.047 7.722-.956.081-3.553-.041-5.576-.16a5.762 5.762 0 01-4.243-2.258z" transform="translate(-341.53 -216.217)"/><path class="i" d="M303.293 169.765l.438.918a2.071 2.071 0 01.014 1.755l-12.9 28.16a12.722 12.722 0 01-2.623 3.825s2.064 2.461 5.14.206c0 0-1.168-1.7-.5-2.916.6-1.088 10.985-23.872 13.138-28.594a2.675 2.675 0 011.19-1.257 8.679 8.679 0 001.517-.949c.534-.5.888-1.619-1.974-2.147-3.154-.582-3.712.058-3.44.999z" transform="translate(-237.273 -138.75)"/><path class="u" d="M379.006 384.831a6.8 6.8 0 00-5.008-.925s.524-2.123 6.4-2.676-1.392 3.601-1.392 3.601z" transform="translate(-307.886 -313.799)"/><path class="i" d="M190.084 390.532l-.362-1.256s-5.361.2-6.381 2.536 1.587 3.157 1.587 3.157z" transform="translate(-150.738 -320.464)"/><path d="M193.267 396a7.914 7.914 0 00-4.243.553c-2.1.95-2.579 2.516-1.482 3.525s4.09.819 5.027.546a1.419 1.419 0 00.912-.946 11.7 11.7 0 00-.214-3.678z" transform="translate(-153.921 -325.929)" style="fill:#757575"/><ellipse class="g" cx="4.879" cy="4.901" rx="4.879" ry="4.901" transform="translate(70.351 66.297)"/><ellipse class="i" cx="1.952" cy="1.961" rx="1.952" ry="1.961" transform="translate(73.904 69.055)"/><ellipse class="g" cx="3.904" cy="3.921" rx="3.904" ry="3.921" transform="translate(30.929 78.685)"/><path class="u" d="M191.591 410.627l-.454 4.6.806.446.682 3.543 1.153-3.846-1.16-.642.56-3.91a.819.819 0 00-.7-.938h-.022a.813.813 0 00-.865.747z" transform="translate(-157.35 -337.425)"/><ellipse class="u" cx="1.626" cy="1.634" rx="1.626" ry="1.634" transform="translate(33.65 80.163)"/><path class="i" d="M462.787 8.463L441.623 38.43 424.832 54.2c-2.418-1.338-7.064-1.007-7.064-1.007.834.347 19.554-17.933 19.554-17.933l19.3-27.042z" transform="translate(-343.92 -6.763)"/><path class="i" d="M558.169 1.7S536.576-1.544 533.9.934s15.026 2.774 24.269.766z" transform="translate(-439.302 -.001)"/><path class="r" d="M97.011 354.324l-.044-.043a8.044 8.044 0 01-1.958-3.051l-2.883-8.059 1.751-.227 2.728 7.626a8.081 8.081 0 01.406 3.754z" transform="translate(-75.841 -282.322)"/></g></g></svg>