<svg xmlns="http://www.w3.org/2000/svg" width="28" height="28" viewBox="0 0 28 28"><defs><style>.a{fill:#ffc107;}.b{fill:#ff3d00;}.c{fill:#4caf50;}.d{fill:#1976d2;}</style></defs><g transform="translate(-4 -4)"><path class="a" d="M31.728,15.258H30.6V15.2H18v5.6h7.912a8.406,8.406,0,1,1-2.339-9.073l3.96-3.96A13.986,13.986,0,1,0,32,18,14.1,14.1,0,0,0,31.728,15.258Z"/><path class="b" d="M6.306,11.558l4.645,3.407A8.466,8.466,0,0,1,24.443,11.8l4-4A14.112,14.112,0,0,0,6.306,11.558Z" transform="translate(-0.676)"/><path class="c" d="M18.782,39.327a14.073,14.073,0,0,0,9.48-3.671l-4.376-3.7a8.462,8.462,0,0,1-13.08-3.9L6.2,31.606A14.128,14.128,0,0,0,18.782,39.327Z" transform="translate(-0.643 -7.327)"/><path class="d" d="M37.864,20.059H36.725V20H24v5.656h7.991A8.512,8.512,0,0,1,29.1,29.594h0l4.376,3.7a13.678,13.678,0,0,0,4.66-10.468A14.236,14.236,0,0,0,37.864,20.059Z" transform="translate(-6.139 -4.967)"/></g></svg>