<svg xmlns="http://www.w3.org/2000/svg" xmlns:xlink="http://www.w3.org/1999/xlink" width="28" height="28" viewBox="0 0 28 28"><defs><style>.a{fill:url(#a);}.b{fill:#fff;}</style><linearGradient id="a" x1="0.15" y1="0.15" x2="0.915" y2="0.915" gradientUnits="objectBoundingBox"><stop offset="0" stop-color="#2aa4f4"/><stop offset="1" stop-color="#007ad9"/></linearGradient></defs><g transform="translate(-4 -4)"><path class="a" d="M18,4A14,14,0,1,0,32,18,14,14,0,0,0,18,4Z"/><path class="b" d="M24.154,25.2h3.935l.618-4H24.154V19.021c0-1.66.543-3.133,2.1-3.133h2.5V12.4a21.212,21.212,0,0,0-3.119-.189c-3.66,0-5.805,1.933-5.805,6.336v2.659H16.06v4h3.762V36.192a15.379,15.379,0,0,0,2.275.187,15.3,15.3,0,0,0,2.058-.155Z" transform="translate(-4.138 -4.379)"/></g></svg>