<svg xmlns="http://www.w3.org/2000/svg" width="53.819" height="58.399" viewBox="0 0 53.819 58.399"><defs><style>.a{fill:#ffc809;}.b{fill:#2cb4e8;}.c{fill:#4c4d4f;}</style></defs><g transform="translate(0.007)"><g transform="translate(-0.007 0)"><path class="a" d="M117.419,4.158V20.8a16.632,16.632,0,1,1-33.264,0V16.632a4.158,4.158,0,1,1,8.315,0V20.8a8.317,8.317,0,1,0,16.633,0V4.158a4.158,4.158,0,1,1,8.315,0Z" transform="translate(-67.642 0)"/><path class="b" d="M20.59,33.263V16.632a16.632,16.632,0,1,1,33.264,0V20.8a4.158,4.158,0,0,1-8.315,0V16.632a8.317,8.317,0,1,0-16.633,0v16.63a4.158,4.158,0,1,1-8.315,0Z" transform="translate(-16.549 0)"/><path class="c" d="M.736,246.238a11,11,0,0,0,2.247-.2,3.335,3.335,0,0,0,1.373-.589,2.611,2.611,0,0,0,.357-.347,1.66,1.66,0,0,0,.257-.418,2.761,2.761,0,0,0,.159-.522,3.9,3.9,0,0,0,.067-.653H3.706a5.005,5.005,0,0,1-1.3-.177,3.361,3.361,0,0,1-1.195-.589,3.12,3.12,0,0,1-.875-1.085,3.7,3.7,0,0,1-.339-1.654,4.815,4.815,0,0,1,.1-1.05,4.33,4.33,0,0,1,.261-.824,3.253,3.253,0,0,1,.353-.628,4.677,4.677,0,0,1,.381-.461,3.608,3.608,0,0,1,2.551-1.026,3.728,3.728,0,0,1,1.224.2,3.055,3.055,0,0,1,1.02.589,3.5,3.5,0,0,1,.924,1.4,5.853,5.853,0,0,1,.314,2.025v3.153a6.151,6.151,0,0,1-.1,1.134,4.419,4.419,0,0,1-.286.948,3.416,3.416,0,0,1-.483.785,4.259,4.259,0,0,1-.689.661,5.024,5.024,0,0,1-.865.536,5.693,5.693,0,0,1-1.069.373,9.825,9.825,0,0,1-1.3.218c-.475.047-1,.073-1.587.073Zm2.91-8.341a1.558,1.558,0,0,0-1.266.542,2.4,2.4,0,0,0-.449,1.57,1.846,1.846,0,0,0,.159.828,1.252,1.252,0,0,0,.469.512,1.42,1.42,0,0,0,.322.151,3.109,3.109,0,0,0,.332.088,2.337,2.337,0,0,0,.286.047,1.888,1.888,0,0,0,.208.014H5.2v-1.411a4.83,4.83,0,0,0-.088-1,2.482,2.482,0,0,0-.232-.667,1.374,1.374,0,0,0-.312-.392,1.146,1.146,0,0,0-.345-.2,1.238,1.238,0,0,0-.328-.069c-.1-.01-.186-.012-.251-.012Z" transform="translate(0.007 -189.711)"/><path class="c" d="M52.019,249.654a6.1,6.1,0,0,1-.438,2.068,4.577,4.577,0,0,1-1.069,1.57,4.708,4.708,0,0,1-1.65,1,6.355,6.355,0,0,1-2.182.351H45.46v-1.868h1.22a5.69,5.69,0,0,0,1.525-.18,2.508,2.508,0,0,0,1.056-.567,2.354,2.354,0,0,0,.622-1.018,4.986,4.986,0,0,0,.2-1.525V244.15h1.937Z" transform="translate(-36.539 -196.246)"/><path class="c" d="M98.246,237.783v1.872h-.222a3.567,3.567,0,0,1-2.421-1.008,2.52,2.52,0,0,1-.706.555,4.69,4.69,0,0,1-1.609.479c-.22.033-.443.059-.677.073s-.471.022-.712.022c-.359,0-.71-.018-1.052-.051-.171-.018-.355-.041-.551-.069s-.4-.069-.616-.12a5.828,5.828,0,0,1-.632-.2,4.565,4.565,0,0,1-.589-.269l-.84-.463.963-1.623.832.463a2.376,2.376,0,0,0,.5.206,4.711,4.711,0,0,0,.608.139c.22.037.445.065.681.082s.473.025.708.025a11.091,11.091,0,0,0,1.144-.055,2.286,2.286,0,0,0,.8-.21.561.561,0,0,0,.328-.436v-.061a1.338,1.338,0,0,0-.267-.673q-.706-1.05-1.264-1.872c-.371-.547-.683-1-.936-1.364s-.439-.628-.557-.8a2.435,2.435,0,0,1-.141-.206v.01l1.627-1.026.212.308q.2.306.567.842c.241.355.528.785.861,1.26l1.083,1.57.575.82a9.117,9.117,0,0,0,.667.846,4.711,4.711,0,0,0,.712.663,1.177,1.177,0,0,0,.7.269Z" transform="translate(-70.427 -185.845)"/><path class="c" d="M143.711,264.71c.153,0,.23.065.23.2v1.462c0,.141-.077.214-.23.214h-3.785a.2.2,0,0,1-.22-.214v-1.462c0-.131.073-.2.22-.2Z" transform="translate(-112.293 -212.772)"/><path class="c" d="M163.031,264.71c.153,0,.232.065.232.2v1.462c0,.141-.078.214-.232.214h-3.783a.2.2,0,0,1-.222-.214v-1.462c0-.131.075-.2.222-.2Z" transform="translate(-127.822 -212.772)"/><path class="c" d="M182.361,264.71c.153,0,.23.065.23.2v1.462c0,.141-.077.214-.23.214h-3.783a.2.2,0,0,1-.222-.214v-1.462c0-.131.075-.2.222-.2Z" transform="translate(-143.359 -212.772)"/><path class="c" d="M207.734,248.152v1.872h-1.415a4.354,4.354,0,0,1-1.4-.21,2.492,2.492,0,0,1-1.016-.624,3.316,3.316,0,0,1-1.162.616,5.252,5.252,0,0,1-1.552.214H198v-1.872h3.192a3.151,3.151,0,0,0,.932-.112,1.356,1.356,0,0,0,.526-.277.785.785,0,0,0,.23-.369,1.515,1.515,0,0,0,.053-.392V244.11h1.935v2.837a1.152,1.152,0,0,0,.092.491,1.048,1.048,0,0,0,.233.334,1.153,1.153,0,0,0,.31.21,1.909,1.909,0,0,0,.332.116,1.874,1.874,0,0,0,.3.047h.2Zm-7.24,6.29a1.2,1.2,0,0,1-.871-.351,1.177,1.177,0,0,1,0-1.691,1.261,1.261,0,0,1,1.746,0,1.167,1.167,0,0,1,0,1.691A1.215,1.215,0,0,1,200.494,254.442Zm3.4,0a1.2,1.2,0,0,1-.865-.351,1.167,1.167,0,0,1,0-1.691,1.2,1.2,0,0,1,.865-.351,1.218,1.218,0,0,1,.877.351,1.177,1.177,0,0,1,0,1.691A1.218,1.218,0,0,1,203.9,254.442Z" transform="translate(-159.15 -196.214)"/><path class="c" d="M250.5,238c.012.035.035.128.071.279s.078.337.128.559.1.467.151.736.1.538.141.808.08.532.11.785a5.877,5.877,0,0,1,.045.663,3.445,3.445,0,0,1-.292,1.47,3.029,3.029,0,0,1-.755,1.026,3.139,3.139,0,0,1-1.048.6,3.673,3.673,0,0,1-1.177.2H245.49v-1.872h2.455a2.377,2.377,0,0,0,.339-.035,1.124,1.124,0,0,0,.447-.175,1.224,1.224,0,0,0,.392-.422,1.57,1.57,0,0,0,.163-.785,3.927,3.927,0,0,0-.035-.471q-.035-.283-.088-.606c-.035-.216-.077-.439-.124-.667s-.092-.441-.137-.64-.086-.379-.128-.54-.075-.283-.1-.367Z" transform="translate(-197.322 -191.303)"/><path class="c" d="M257.861,220.946a1.261,1.261,0,0,1-.91-.367,1.214,1.214,0,0,1,0-1.766,1.328,1.328,0,0,1,1.825,0,1.222,1.222,0,0,1,0,1.766,1.256,1.256,0,0,1-.914.367Z" transform="translate(-206.228 -175.589)"/></g></g></svg>